<?xml version="1.0" encoding="UTF-8" standalone="no"?>
<!DOCTYPE svg PUBLIC "-//W3C//DTD SVG 1.1//EN"
 "http://www.w3.org/Graphics/SVG/1.1/DTD/svg11.dtd">
<!-- Generated by graphviz version 2.42.3 (0)
 -->
<!-- Title: %3 Pages: 1 -->
<svg width="1452pt" height="3037pt"
 viewBox="0.00 0.00 1452.00 3037.00" xmlns="http://www.w3.org/2000/svg" xmlns:xlink="http://www.w3.org/1999/xlink">
<g id="graph0" class="graph" transform="scale(1 1) rotate(0) translate(4 3033)">
<title>%3</title>
<polygon fill="white" stroke="transparent" points="-4,4 -4,-3033 1448,-3033 1448,4 -4,4"/>
<!-- unhappy -->
<g id="node1" class="node">
<title>unhappy</title>
<path fill="none" stroke="black" d="M610,-3029C610,-3029 454,-3029 454,-3029 448,-3029 442,-3023 442,-3017 442,-3017 442,-3005 442,-3005 442,-2999 448,-2993 454,-2993 454,-2993 610,-2993 610,-2993 616,-2993 622,-2999 622,-3005 622,-3005 622,-3017 622,-3017 622,-3023 616,-3029 610,-3029"/>
<text text-anchor="middle" x="532" y="-3007.3" font-family="Times,serif" font-size="14.00">React vous rend triste.</text>
</g>
<!-- are_you_using_react_boilerplates -->
<g id="node2" class="node">
<title>are_you_using_react_boilerplates</title>
<polygon fill="none" stroke="black" points="532,-2956 295,-2918 532,-2880 769,-2918 532,-2956"/>
<text text-anchor="middle" x="532" y="-2921.8" font-family="Times,serif" font-size="14.00">Apprenez&#45;vous React</text>
<text text-anchor="middle" x="532" y="-2906.8" font-family="Times,serif" font-size="14.00"> &#160;&#160;&#160;en copiant du code&#45;modèle ?</text>
</g>
<!-- unhappy&#45;&gt;are_you_using_react_boilerplates -->
<g id="edge1" class="edge">
<title>unhappy&#45;&gt;are_you_using_react_boilerplates</title>
<path fill="none" stroke="black" d="M532,-2992.88C532,-2985.25 532,-2975.83 532,-2966.31"/>
<polygon fill="black" stroke="black" points="535.5,-2966.02 532,-2956.02 528.5,-2966.02 535.5,-2966.02"/>
</g>
<!-- boilerplates_dont_teach -->
<g id="node3" class="node">
<title>boilerplates_dont_teach</title>
<polygon fill="none" stroke="black" points="543,-2829 97,-2829 97,-2551 543,-2551 543,-2829"/>
<text text-anchor="middle" x="320" y="-2813.8" font-family="Times,serif" font-size="14.00">Apprendre React en copiant du code&#45;modèle,</text>
<text text-anchor="middle" x="320" y="-2798.8" font-family="Times,serif" font-size="14.00"> &#160;&#160;&#160;c’est comme apprendre à cuisiner en mangeant</text>
<text text-anchor="middle" x="320" y="-2783.8" font-family="Times,serif" font-size="14.00"> &#160;&#160;&#160;dans des restaurants gastronomiques. Ça ne marche pas.</text>
<text text-anchor="middle" x="320" y="-2768.8" font-family="Times,serif" font-size="14.00"> &#160;&#160;&#160;Vous devez débuter par les bases et ignorer la peur</text>
<text text-anchor="middle" x="320" y="-2753.8" font-family="Times,serif" font-size="14.00"> &#160;&#160;&#160;infondée de passer à côté de quelque&#45;chose.</text>
<text text-anchor="middle" x="320" y="-2738.8" font-family="Times,serif" font-size="14.00"> &#160;&#160;&#160;Les gens créent des modèles de code pour montrer</text>
<text text-anchor="middle" x="320" y="-2723.8" font-family="Times,serif" font-size="14.00"> &#160;&#160;&#160;ce qu’ils savent faire ou ce qu’ils ont appris,</text>
<text text-anchor="middle" x="320" y="-2708.8" font-family="Times,serif" font-size="14.00"> &#160;&#160;&#160;pas pour vous aider à apprendre. Ils sont créés</text>
<text text-anchor="middle" x="320" y="-2693.8" font-family="Times,serif" font-size="14.00"> &#160;&#160;&#160;pour et par des utilisateurs expérimentés, et</text>
<text text-anchor="middle" x="320" y="-2678.8" font-family="Times,serif" font-size="14.00"> &#160;&#160;&#160;sont souvent bien plus expérimentaux qu’ils</text>
<text text-anchor="middle" x="320" y="-2663.8" font-family="Times,serif" font-size="14.00"> &#160;&#160;&#160;ne veulent bien l’admettre. Les différents</text>
<text text-anchor="middle" x="320" y="-2648.8" font-family="Times,serif" font-size="14.00"> &#160;&#160;&#160;codes&#45;modèles concourent pour attirer l’attention,</text>
<text text-anchor="middle" x="320" y="-2633.8" font-family="Times,serif" font-size="14.00"> &#160;&#160;&#160;ce qui mène à davantage de surcharge. Si vous voulez</text>
<text text-anchor="middle" x="320" y="-2618.8" font-family="Times,serif" font-size="14.00"> &#160;&#160;&#160;vraiment apprendre React, apprenez&#45;le dans</text>
<text text-anchor="middle" x="320" y="-2603.8" font-family="Times,serif" font-size="14.00"> &#160;&#160;&#160;l’ordre préconisé par Pete Hunt dans son guide :</text>
<text text-anchor="middle" x="320" y="-2588.8" font-family="Times,serif" font-size="14.00"> &#160;&#160;&#160;https://github.com/petehunt/react&#45;howto (en anglais).</text>
<text text-anchor="middle" x="320" y="-2573.8" font-family="Times,serif" font-size="14.00"> &#160;&#160;&#160;Ne regardez pas du code&#45;modèle avant de</text>
<text text-anchor="middle" x="320" y="-2558.8" font-family="Times,serif" font-size="14.00"> &#160;&#160;&#160;savoir en créer.</text>
</g>
<!-- are_you_using_react_boilerplates&#45;&gt;boilerplates_dont_teach -->
<g id="edge2" class="edge">
<title>are_you_using_react_boilerplates&#45;&gt;boilerplates_dont_teach</title>
<path fill="none" stroke="black" d="M501.63,-2884.62C489.1,-2871.27 473.64,-2854.79 457.07,-2837.12"/>
<polygon fill="black" stroke="black" points="459.3,-2834.38 449.9,-2829.48 454.19,-2839.17 459.3,-2834.38"/>
<text text-anchor="middle" x="487" y="-2850.8" font-family="Times,serif" font-size="14.00">oui</text>
</g>
<!-- steal_from_boilerplates -->
<g id="node4" class="node">
<title>steal_from_boilerplates</title>
<polygon fill="none" stroke="black" points="928.5,-2799 561.5,-2799 561.5,-2581 928.5,-2581 928.5,-2799"/>
<text text-anchor="middle" x="745" y="-2783.8" font-family="Times,serif" font-size="14.00">Le code&#45;modèle n’est pas une bonne</text>
<text text-anchor="middle" x="745" y="-2768.8" font-family="Times,serif" font-size="14.00"> &#160;&#160;&#160;manière d’apprendre les technologies qui</text>
<text text-anchor="middle" x="745" y="-2753.8" font-family="Times,serif" font-size="14.00"> &#160;&#160;&#160;y sont combinées. Pourtant, il est utile de</text>
<text text-anchor="middle" x="745" y="-2738.8" font-family="Times,serif" font-size="14.00"> &#160;&#160;&#160;voir comment ces technologies peuvent être</text>
<text text-anchor="middle" x="745" y="-2723.8" font-family="Times,serif" font-size="14.00"> &#160;&#160;&#160;utilisées ensemble *une fois que* vous êtes</text>
<text text-anchor="middle" x="745" y="-2708.8" font-family="Times,serif" font-size="14.00"> &#160;&#160;&#160;à l’aise avec chacune d’entre elles</text>
<text text-anchor="middle" x="745" y="-2693.8" font-family="Times,serif" font-size="14.00"> &#160;&#160;&#160;séparément. C’est une bonne façon de</text>
<text text-anchor="middle" x="745" y="-2678.8" font-family="Times,serif" font-size="14.00"> &#160;&#160;&#160;découvrir de nouvelles technologies mais vous</text>
<text text-anchor="middle" x="745" y="-2663.8" font-family="Times,serif" font-size="14.00"> &#160;&#160;&#160;ne devriez pas vous sentir obligés de toutes</text>
<text text-anchor="middle" x="745" y="-2648.8" font-family="Times,serif" font-size="14.00"> &#160;&#160;&#160;les utiliser. N’abandonnez pas totalement</text>
<text text-anchor="middle" x="745" y="-2633.8" font-family="Times,serif" font-size="14.00"> &#160;&#160;&#160;le code&#45;modèle. Gardez juste à l’esprit</text>
<text text-anchor="middle" x="745" y="-2618.8" font-family="Times,serif" font-size="14.00"> &#160;&#160;&#160;qu’un modèle de code n’est qu’une liste</text>
<text text-anchor="middle" x="745" y="-2603.8" font-family="Times,serif" font-size="14.00"> &#160;&#160;&#160;d’astuces, pas une base solide pour votre</text>
<text text-anchor="middle" x="745" y="-2588.8" font-family="Times,serif" font-size="14.00"> &#160;&#160;&#160;application.</text>
</g>
<!-- are_you_using_react_boilerplates&#45;&gt;steal_from_boilerplates -->
<g id="edge3" class="edge">
<title>are_you_using_react_boilerplates&#45;&gt;steal_from_boilerplates</title>
<path fill="none" stroke="black" d="M562.52,-2884.62C582.19,-2863.75 609.08,-2835.22 636.17,-2806.48"/>
<polygon fill="black" stroke="black" points="638.74,-2808.85 643.05,-2799.17 633.65,-2804.05 638.74,-2808.85"/>
<text text-anchor="middle" x="608.5" y="-2850.8" font-family="Times,serif" font-size="14.00">non</text>
</g>
<!-- are_you_using_flux -->
<g id="node5" class="node">
<title>are_you_using_flux</title>
<polygon fill="none" stroke="black" points="532,-2514 299,-2476 532,-2438 765,-2476 532,-2514"/>
<text text-anchor="middle" x="532" y="-2479.8" font-family="Times,serif" font-size="14.00">Utilisez&#45;vous une bibliothèque</text>
<text text-anchor="middle" x="532" y="-2464.8" font-family="Times,serif" font-size="14.00"> &#160;&#160;&#160;Flux (ou Redux) ?</text>
</g>
<!-- boilerplates_dont_teach&#45;&gt;are_you_using_flux -->
<g id="edge4" class="edge">
<title>boilerplates_dont_teach&#45;&gt;are_you_using_flux</title>
<path fill="none" stroke="black" d="M458.15,-2550.85C470.58,-2538.42 482.36,-2526.64 492.71,-2516.29"/>
<polygon fill="black" stroke="black" points="495.39,-2518.56 499.99,-2509.01 490.44,-2513.61 495.39,-2518.56"/>
</g>
<!-- steal_from_boilerplates&#45;&gt;are_you_using_flux -->
<g id="edge5" class="edge">
<title>steal_from_boilerplates&#45;&gt;are_you_using_flux</title>
<path fill="none" stroke="black" d="M636.32,-2580.83C612.96,-2557.58 589.74,-2534.46 571.15,-2515.97"/>
<polygon fill="black" stroke="black" points="573.57,-2513.43 564.01,-2508.86 568.63,-2518.39 573.57,-2513.43"/>
</g>
<!-- is_too_much_flux -->
<g id="node6" class="node">
<title>is_too_much_flux</title>
<polygon fill="none" stroke="black" points="241,-2372 0,-2319 241,-2266 482,-2319 241,-2372"/>
<text text-anchor="middle" x="241" y="-2330.3" font-family="Times,serif" font-size="14.00">Est&#45;ce qu’elle ajoute beaucoup</text>
<text text-anchor="middle" x="241" y="-2315.3" font-family="Times,serif" font-size="14.00"> &#160;&#160;&#160;de répétitions sans régler de</text>
<text text-anchor="middle" x="241" y="-2300.3" font-family="Times,serif" font-size="14.00"> &#160;&#160;&#160;problèmes évidents ?</text>
</g>
<!-- are_you_using_flux&#45;&gt;is_too_much_flux -->
<g id="edge6" class="edge">
<title>are_you_using_flux&#45;&gt;is_too_much_flux</title>
<path fill="none" stroke="black" d="M478.63,-2446.57C433.97,-2422.78 369.65,-2388.52 319.18,-2361.64"/>
<polygon fill="black" stroke="black" points="320.72,-2358.5 310.25,-2356.88 317.43,-2364.68 320.72,-2358.5"/>
<text text-anchor="middle" x="433" y="-2408.8" font-family="Times,serif" font-size="14.00">oui</text>
</g>
<!-- is_not_enough_flux -->
<g id="node7" class="node">
<title>is_not_enough_flux</title>
<polygon fill="none" stroke="black" points="824,-2387 500,-2319 824,-2251 1148,-2319 824,-2387"/>
<text text-anchor="middle" x="824" y="-2337.8" font-family="Times,serif" font-size="14.00">Avez&#45;vous en haut de votre hiérarchie</text>
<text text-anchor="middle" x="824" y="-2322.8" font-family="Times,serif" font-size="14.00"> &#160;&#160;&#160;de composants quelques composants</text>
<text text-anchor="middle" x="824" y="-2307.8" font-family="Times,serif" font-size="14.00"> &#160;&#160;&#160;surchargés, gérant beaucoup d’états,</text>
<text text-anchor="middle" x="824" y="-2292.8" font-family="Times,serif" font-size="14.00"> &#160;&#160;&#160;qui sont souvent à la source de bogues ?</text>
</g>
<!-- are_you_using_flux&#45;&gt;is_not_enough_flux -->
<g id="edge7" class="edge">
<title>are_you_using_flux&#45;&gt;is_not_enough_flux</title>
<path fill="none" stroke="black" d="M585.56,-2446.57C624.38,-2425.96 678.02,-2397.49 724.59,-2372.77"/>
<polygon fill="black" stroke="black" points="726.31,-2375.82 733.5,-2368.04 723.03,-2369.63 726.31,-2375.82"/>
<text text-anchor="middle" x="673.5" y="-2408.8" font-family="Times,serif" font-size="14.00">non</text>
</g>
<!-- remove_flux -->
<g id="node8" class="node">
<title>remove_flux</title>
<polygon fill="none" stroke="black" points="471.5,-2200 124.5,-2200 124.5,-2102 471.5,-2102 471.5,-2200"/>
<text text-anchor="middle" x="298" y="-2184.8" font-family="Times,serif" font-size="14.00">Supprimez la bibliothèque Flux.</text>
<text text-anchor="middle" x="298" y="-2169.8" font-family="Times,serif" font-size="14.00"> &#160;&#160;&#160;Acquérez une bonne intuition de la manière</text>
<text text-anchor="middle" x="298" y="-2154.8" font-family="Times,serif" font-size="14.00"> &#160;&#160;&#160;dont il faut structurer les applications</text>
<text text-anchor="middle" x="298" y="-2139.8" font-family="Times,serif" font-size="14.00"> &#160;&#160;&#160;React de base en lisant</text>
<text text-anchor="middle" x="298" y="-2124.8" font-family="Times,serif" font-size="14.00"> &#160;&#160;&#160;« Thinking in React » (en anglais)</text>
<text text-anchor="middle" x="298" y="-2109.8" font-family="Times,serif" font-size="14.00"> &#160;&#160;&#160;dans la documentation officielle.</text>
</g>
<!-- is_too_much_flux&#45;&gt;remove_flux -->
<g id="edge8" class="edge">
<title>is_too_much_flux&#45;&gt;remove_flux</title>
<path fill="none" stroke="black" d="M257.64,-2269.54C264.05,-2250.87 271.43,-2229.37 278.12,-2209.9"/>
<polygon fill="black" stroke="black" points="281.5,-2210.83 281.44,-2200.23 274.88,-2208.55 281.5,-2210.83"/>
<text text-anchor="middle" x="286" y="-2221.8" font-family="Times,serif" font-size="14.00">oui</text>
</g>
<!-- are_you_using_bundler -->
<g id="node9" class="node">
<title>are_you_using_bundler</title>
<polygon fill="none" stroke="black" points="547,-2065 229,-2027 547,-1989 865,-2027 547,-2065"/>
<text text-anchor="middle" x="547" y="-2030.8" font-family="Times,serif" font-size="14.00">Utilisez vous un empaqueteur JavaScript</text>
<text text-anchor="middle" x="547" y="-2015.8" font-family="Times,serif" font-size="14.00"> &#160;&#160;&#160;(par exemple Webpack ou Browserify) ?</text>
</g>
<!-- is_too_much_flux&#45;&gt;are_you_using_bundler -->
<g id="edge9" class="edge">
<title>is_too_much_flux&#45;&gt;are_you_using_bundler</title>
<path fill="none" stroke="black" d="M340.82,-2287.79C388.31,-2269.07 442.72,-2240.68 480,-2200 488.99,-2190.19 514.51,-2120.74 531.33,-2073.14"/>
<polygon fill="black" stroke="black" points="534.65,-2074.24 534.67,-2063.64 528.05,-2071.91 534.65,-2074.24"/>
<text text-anchor="middle" x="534.5" y="-2147.3" font-family="Times,serif" font-size="14.00">non</text>
</g>
<!-- is_not_enough_flux&#45;&gt;are_you_using_bundler -->
<g id="edge11" class="edge">
<title>is_not_enough_flux&#45;&gt;are_you_using_bundler</title>
<path fill="none" stroke="black" d="M700.43,-2276.91C661.91,-2258.72 622.4,-2233.64 595,-2200 566.01,-2164.41 554.49,-2112.44 549.94,-2074.95"/>
<polygon fill="black" stroke="black" points="553.4,-2074.35 548.83,-2064.79 546.44,-2075.11 553.4,-2074.35"/>
<text text-anchor="middle" x="608.5" y="-2147.3" font-family="Times,serif" font-size="14.00">non</text>
</g>
<!-- add_flux -->
<g id="node10" class="node">
<title>add_flux</title>
<polygon fill="none" stroke="black" points="1011,-2185 631,-2185 631,-2117 1011,-2117 1011,-2185"/>
<text text-anchor="middle" x="821" y="-2169.8" font-family="Times,serif" font-size="14.00">Envisagez l’ajout d’une bibliothèque Flux.</text>
<text text-anchor="middle" x="821" y="-2154.8" font-family="Times,serif" font-size="14.00"> &#160;&#160;&#160;Elle peut vous aider à extraire les états</text>
<text text-anchor="middle" x="821" y="-2139.8" font-family="Times,serif" font-size="14.00"> &#160;&#160;&#160;partagés entre beaucoup de composants et à les</text>
<text text-anchor="middle" x="821" y="-2124.8" font-family="Times,serif" font-size="14.00"> &#160;&#160;&#160;maintenir à jour de manière cohérente.</text>
</g>
<!-- is_not_enough_flux&#45;&gt;add_flux -->
<g id="edge10" class="edge">
<title>is_not_enough_flux&#45;&gt;add_flux</title>
<path fill="none" stroke="black" d="M822.79,-2250.96C822.45,-2232.18 822.09,-2212.27 821.78,-2195.27"/>
<polygon fill="black" stroke="black" points="825.28,-2195.03 821.6,-2185.1 818.28,-2195.16 825.28,-2195.03"/>
<text text-anchor="middle" x="833" y="-2221.8" font-family="Times,serif" font-size="14.00">oui</text>
</g>
<!-- remove_flux&#45;&gt;are_you_using_bundler -->
<g id="edge13" class="edge">
<title>remove_flux&#45;&gt;are_you_using_bundler</title>
<path fill="none" stroke="black" d="M396.05,-2101.96C423.08,-2088.71 451.86,-2074.62 476.95,-2062.32"/>
<polygon fill="black" stroke="black" points="478.58,-2065.42 486.02,-2057.88 475.5,-2059.13 478.58,-2065.42"/>
</g>
<!-- are_you_working_on_production_app_with_bundler -->
<g id="node11" class="node">
<title>are_you_working_on_production_app_with_bundler</title>
<polygon fill="none" stroke="black" points="310,-1938 81,-1900 310,-1862 539,-1900 310,-1938"/>
<text text-anchor="middle" x="310" y="-1903.8" font-family="Times,serif" font-size="14.00">Travaillez&#45;vous sur une</text>
<text text-anchor="middle" x="310" y="-1888.8" font-family="Times,serif" font-size="14.00"> &#160;&#160;&#160;application en production ?</text>
</g>
<!-- are_you_using_bundler&#45;&gt;are_you_working_on_production_app_with_bundler -->
<g id="edge14" class="edge">
<title>are_you_using_bundler&#45;&gt;are_you_working_on_production_app_with_bundler</title>
<path fill="none" stroke="black" d="M489.63,-1995.74C454.27,-1977.09 408.91,-1953.17 372.61,-1934.02"/>
<polygon fill="black" stroke="black" points="374.07,-1930.84 363.59,-1929.27 370.81,-1937.03 374.07,-1930.84"/>
<text text-anchor="middle" x="454" y="-1959.8" font-family="Times,serif" font-size="14.00">oui</text>
</g>
<!-- are_you_working_on_production_app_without_bundler -->
<g id="node12" class="node">
<title>are_you_working_on_production_app_without_bundler</title>
<polygon fill="none" stroke="black" points="786,-1938 557,-1900 786,-1862 1015,-1900 786,-1938"/>
<text text-anchor="middle" x="786" y="-1903.8" font-family="Times,serif" font-size="14.00">Travaillez&#45;vous sur une</text>
<text text-anchor="middle" x="786" y="-1888.8" font-family="Times,serif" font-size="14.00"> &#160;&#160;&#160;application en production ?</text>
</g>
<!-- are_you_using_bundler&#45;&gt;are_you_working_on_production_app_without_bundler -->
<g id="edge15" class="edge">
<title>are_you_using_bundler&#45;&gt;are_you_working_on_production_app_without_bundler</title>
<path fill="none" stroke="black" d="M604.86,-1995.74C640.52,-1977.09 686.26,-1953.17 722.86,-1934.02"/>
<polygon fill="black" stroke="black" points="724.71,-1937 731.95,-1929.27 721.47,-1930.8 724.71,-1937"/>
<text text-anchor="middle" x="693.5" y="-1959.8" font-family="Times,serif" font-size="14.00">non</text>
</g>
<!-- add_flux&#45;&gt;are_you_using_bundler -->
<g id="edge12" class="edge">
<title>add_flux&#45;&gt;are_you_using_bundler</title>
<path fill="none" stroke="black" d="M746.85,-2116.99C708.12,-2099.74 660.82,-2078.68 621.97,-2061.38"/>
<polygon fill="black" stroke="black" points="623.35,-2058.17 612.79,-2057.29 620.5,-2064.56 623.35,-2058.17"/>
</g>
<!-- do_you_know_es2015 -->
<g id="node13" class="node">
<title>do_you_know_es2015</title>
<polygon fill="none" stroke="black" points="611,-1646 348,-1578 611,-1510 874,-1578 611,-1646"/>
<text text-anchor="middle" x="611" y="-1596.8" font-family="Times,serif" font-size="14.00">Vous sentez&#45;vous à l’aise</text>
<text text-anchor="middle" x="611" y="-1581.8" font-family="Times,serif" font-size="14.00"> &#160;&#160;&#160;avec les fonctionnalités ES2015</text>
<text text-anchor="middle" x="611" y="-1566.8" font-family="Times,serif" font-size="14.00"> &#160;&#160;&#160;(par exemple les classes et les</text>
<text text-anchor="middle" x="611" y="-1551.8" font-family="Times,serif" font-size="14.00"> &#160;&#160;&#160;fonctions fléchées) ?</text>
</g>
<!-- are_you_working_on_production_app_with_bundler&#45;&gt;do_you_know_es2015 -->
<g id="edge16" class="edge">
<title>are_you_working_on_production_app_with_bundler&#45;&gt;do_you_know_es2015</title>
<path fill="none" stroke="black" d="M272.72,-1867.81C257.3,-1852.48 241.14,-1832.66 233,-1811 212.99,-1757.75 198.52,-1728.25 233,-1683 258.99,-1648.89 350.99,-1623.16 437.71,-1605.83"/>
<polygon fill="black" stroke="black" points="438.58,-1609.22 447.71,-1603.86 437.23,-1602.35 438.58,-1609.22"/>
<text text-anchor="middle" x="244" y="-1743.3" font-family="Times,serif" font-size="14.00">oui</text>
</g>
<!-- remove_bundler -->
<g id="node14" class="node">
<title>remove_bundler</title>
<polygon fill="none" stroke="black" points="630,-1811 264,-1811 264,-1683 630,-1683 630,-1811"/>
<text text-anchor="middle" x="447" y="-1795.8" font-family="Times,serif" font-size="14.00">Pas besoin d’empaqueteur si vous</text>
<text text-anchor="middle" x="447" y="-1780.8" font-family="Times,serif" font-size="14.00"> &#160;&#160;&#160;êtes en train d’apprendre React.</text>
<text text-anchor="middle" x="447" y="-1765.8" font-family="Times,serif" font-size="14.00"> &#160;&#160;&#160;Copiez https://github.com/jarsbe/react&#45;simple</text>
<text text-anchor="middle" x="447" y="-1750.8" font-family="Times,serif" font-size="14.00"> &#160;&#160;&#160;et commencez à bidouiller sans faire de build.</text>
<text text-anchor="middle" x="447" y="-1735.8" font-family="Times,serif" font-size="14.00"> &#160;&#160;&#160;Utilisez des balises &lt;script&gt; jusqu’à ce</text>
<text text-anchor="middle" x="447" y="-1720.8" font-family="Times,serif" font-size="14.00"> &#160;&#160;&#160;que vous soyez à l’aise avec React et que vous</text>
<text text-anchor="middle" x="447" y="-1705.8" font-family="Times,serif" font-size="14.00"> &#160;&#160;&#160;vouliez en apprendre plus sur les systèmes de</text>
<text text-anchor="middle" x="447" y="-1690.8" font-family="Times,serif" font-size="14.00"> &#160;&#160;&#160;modules et les empaqueteurs.</text>
</g>
<!-- are_you_working_on_production_app_with_bundler&#45;&gt;remove_bundler -->
<g id="edge17" class="edge">
<title>are_you_working_on_production_app_with_bundler&#45;&gt;remove_bundler</title>
<path fill="none" stroke="black" d="M339.39,-1866.61C352.14,-1852.55 367.61,-1835.5 382.79,-1818.77"/>
<polygon fill="black" stroke="black" points="385.61,-1820.87 389.74,-1811.11 380.43,-1816.16 385.61,-1820.87"/>
<text text-anchor="middle" x="384.5" y="-1832.8" font-family="Times,serif" font-size="14.00">non</text>
</g>
<!-- are_you_working_on_production_app_without_bundler&#45;&gt;do_you_know_es2015 -->
<g id="edge19" class="edge">
<title>are_you_working_on_production_app_without_bundler&#45;&gt;do_you_know_es2015</title>
<path fill="none" stroke="black" d="M736.57,-1869.98C714.81,-1854.91 690.68,-1834.68 675,-1811 673.85,-1809.26 649.1,-1718.93 630.72,-1651.51"/>
<polygon fill="black" stroke="black" points="634.07,-1650.47 628.06,-1641.75 627.31,-1652.32 634.07,-1650.47"/>
<text text-anchor="middle" x="688.5" y="-1743.3" font-family="Times,serif" font-size="14.00">non</text>
</g>
<!-- add_bundler -->
<g id="node15" class="node">
<title>add_bundler</title>
<polygon fill="none" stroke="black" points="1033,-1811 711,-1811 711,-1683 1033,-1683 1033,-1811"/>
<text text-anchor="middle" x="872" y="-1795.8" font-family="Times,serif" font-size="14.00">Ajoutez un empaqueteur comme une</text>
<text text-anchor="middle" x="872" y="-1780.8" font-family="Times,serif" font-size="14.00"> &#160;&#160;&#160;étape de votre build pour mieux gérer</text>
<text text-anchor="middle" x="872" y="-1765.8" font-family="Times,serif" font-size="14.00"> &#160;&#160;&#160;vos dépendances et distribuer le code</text>
<text text-anchor="middle" x="872" y="-1750.8" font-family="Times,serif" font-size="14.00"> &#160;&#160;&#160;JavaScript efficacement. Utilisez l’outil</text>
<text text-anchor="middle" x="872" y="-1735.8" font-family="Times,serif" font-size="14.00"> &#160;&#160;&#160;Google Page Speed Insights pour jauger</text>
<text text-anchor="middle" x="872" y="-1720.8" font-family="Times,serif" font-size="14.00"> &#160;&#160;&#160;l’efficacité. N’oubliez pas de passer</text>
<text text-anchor="middle" x="872" y="-1705.8" font-family="Times,serif" font-size="14.00"> &#160;&#160;&#160;votre code à travers des outils</text>
<text text-anchor="middle" x="872" y="-1690.8" font-family="Times,serif" font-size="14.00"> &#160;&#160;&#160;minify et envify.</text>
</g>
<!-- are_you_working_on_production_app_without_bundler&#45;&gt;add_bundler -->
<g id="edge18" class="edge">
<title>are_you_working_on_production_app_without_bundler&#45;&gt;add_bundler</title>
<path fill="none" stroke="black" d="M805.3,-1865.11C812.95,-1851.69 822.05,-1835.71 831.03,-1819.94"/>
<polygon fill="black" stroke="black" points="834.09,-1821.63 836,-1811.21 828.01,-1818.17 834.09,-1821.63"/>
<text text-anchor="middle" x="834" y="-1832.8" font-family="Times,serif" font-size="14.00">oui</text>
</g>
<!-- use_es5 -->
<g id="node16" class="node">
<title>use_es5</title>
<polygon fill="none" stroke="black" points="779,-1275 393,-1275 393,-1087 779,-1087 779,-1275"/>
<text text-anchor="middle" x="586" y="-1259.8" font-family="Times,serif" font-size="14.00">N’utilisez pas encore ES2015.</text>
<text text-anchor="middle" x="586" y="-1244.8" font-family="Times,serif" font-size="14.00"> &#160;&#160;&#160;Vous n’en avez pas besoin pour apprendre React.</text>
<text text-anchor="middle" x="586" y="-1229.8" font-family="Times,serif" font-size="14.00"> &#160;&#160;&#160;Les bibliothèques tierces utiliseront souvent la</text>
<text text-anchor="middle" x="586" y="-1214.8" font-family="Times,serif" font-size="14.00"> &#160;&#160;&#160;syntaxe ES2015 dans leur documentation mais</text>
<text text-anchor="middle" x="586" y="-1199.8" font-family="Times,serif" font-size="14.00"> &#160;&#160;&#160;vous n’avez pas besoin de bibliothèque tierces</text>
<text text-anchor="middle" x="586" y="-1184.8" font-family="Times,serif" font-size="14.00"> &#160;&#160;&#160;lorsque vous apprenez uniquement React.</text>
<text text-anchor="middle" x="586" y="-1169.8" font-family="Times,serif" font-size="14.00"> &#160;&#160;&#160;Lorsque vous voudrez rafraîchir</text>
<text text-anchor="middle" x="586" y="-1154.8" font-family="Times,serif" font-size="14.00"> &#160;&#160;&#160;vos connaissances sur JavaScript,</text>
<text text-anchor="middle" x="586" y="-1139.8" font-family="Times,serif" font-size="14.00"> &#160;&#160;&#160;https://leanpub.com/understandinges6/read</text>
<text text-anchor="middle" x="586" y="-1124.8" font-family="Times,serif" font-size="14.00"> &#160;&#160;&#160;est un excellent guide. Servez&#45;vous de</text>
<text text-anchor="middle" x="586" y="-1109.8" font-family="Times,serif" font-size="14.00"> &#160;&#160;&#160;http://babeljs.io/repl pour tester les</text>
<text text-anchor="middle" x="586" y="-1094.8" font-family="Times,serif" font-size="14.00"> &#160;&#160;&#160;nouvelles fonctionnalités.</text>
</g>
<!-- do_you_know_es2015&#45;&gt;use_es5 -->
<g id="edge22" class="edge">
<title>do_you_know_es2015&#45;&gt;use_es5</title>
<path fill="none" stroke="black" d="M606.82,-1510.89C602.93,-1449.45 597.07,-1356.97 592.56,-1285.7"/>
<polygon fill="black" stroke="black" points="596.03,-1285.11 591.91,-1275.35 589.05,-1285.55 596.03,-1285.11"/>
<text text-anchor="middle" x="619.5" y="-1480.8" font-family="Times,serif" font-size="14.00">non</text>
</g>
<!-- are_you_using_dangerous_features -->
<g id="node17" class="node">
<title>are_you_using_dangerous_features</title>
<polygon fill="none" stroke="black" points="874,-1459 614,-1376 874,-1293 1134,-1376 874,-1459"/>
<text text-anchor="middle" x="874" y="-1402.3" font-family="Times,serif" font-size="14.00">Utilisez&#45;vous des</text>
<text text-anchor="middle" x="874" y="-1387.3" font-family="Times,serif" font-size="14.00"> &#160;&#160;&#160;fonctionnalités expérimentales</text>
<text text-anchor="middle" x="874" y="-1372.3" font-family="Times,serif" font-size="14.00"> &#160;&#160;&#160;du langage qui n’ont pas été</text>
<text text-anchor="middle" x="874" y="-1357.3" font-family="Times,serif" font-size="14.00"> &#160;&#160;&#160;incluses dans ES2015</text>
<text text-anchor="middle" x="874" y="-1342.3" font-family="Times,serif" font-size="14.00"> &#160;&#160;&#160;(par exemple les décorateurs) ?</text>
</g>
<!-- do_you_know_es2015&#45;&gt;are_you_using_dangerous_features -->
<g id="edge23" class="edge">
<title>do_you_know_es2015&#45;&gt;are_you_using_dangerous_features</title>
<path fill="none" stroke="black" d="M677.03,-1526.79C711.12,-1500.86 753.09,-1468.94 789.52,-1441.24"/>
<polygon fill="black" stroke="black" points="791.85,-1443.87 797.69,-1435.03 787.61,-1438.3 791.85,-1443.87"/>
<text text-anchor="middle" x="753" y="-1480.8" font-family="Times,serif" font-size="14.00">oui</text>
</g>
<!-- remove_bundler&#45;&gt;do_you_know_es2015 -->
<g id="edge21" class="edge">
<title>remove_bundler&#45;&gt;do_you_know_es2015</title>
<path fill="none" stroke="black" d="M509,-1682.86C522.83,-1668.79 537.46,-1653.88 551.2,-1639.9"/>
<polygon fill="black" stroke="black" points="553.78,-1642.26 558.29,-1632.67 548.79,-1637.36 553.78,-1642.26"/>
</g>
<!-- add_bundler&#45;&gt;do_you_know_es2015 -->
<g id="edge20" class="edge">
<title>add_bundler&#45;&gt;do_you_know_es2015</title>
<path fill="none" stroke="black" d="M773.33,-1682.86C747.37,-1666.26 719.63,-1648.5 694.55,-1632.46"/>
<polygon fill="black" stroke="black" points="696.11,-1629.3 685.8,-1626.86 692.34,-1635.2 696.11,-1629.3"/>
</g>
<!-- do_you_update_packages_asap -->
<g id="node18" class="node">
<title>do_you_update_packages_asap</title>
<polygon fill="none" stroke="black" points="817,-777 520,-724 817,-671 1114,-724 817,-777"/>
<text text-anchor="middle" x="817" y="-735.3" font-family="Times,serif" font-size="14.00">Mettez&#45;vous à jour vos dépendances</text>
<text text-anchor="middle" x="817" y="-720.3" font-family="Times,serif" font-size="14.00"> &#160;&#160;&#160;vers les nouvelles versions majeures</text>
<text text-anchor="middle" x="817" y="-705.3" font-family="Times,serif" font-size="14.00"> &#160;&#160;&#160;dès qu’elles sortent ?</text>
</g>
<!-- use_es5&#45;&gt;do_you_update_packages_asap -->
<g id="edge24" class="edge">
<title>use_es5&#45;&gt;do_you_update_packages_asap</title>
<path fill="none" stroke="black" d="M632.34,-1086.78C671.33,-1008.65 728.76,-894.26 780,-795 782.21,-790.72 784.51,-786.3 786.83,-781.86"/>
<polygon fill="black" stroke="black" points="790.06,-783.24 791.6,-772.76 783.86,-779.99 790.06,-783.24"/>
</g>
<!-- are_you_using_dangerous_features&#45;&gt;do_you_update_packages_asap -->
<g id="edge26" class="edge">
<title>are_you_using_dangerous_features&#45;&gt;do_you_update_packages_asap</title>
<path fill="none" stroke="black" d="M854.5,-1298.92C839.77,-1237.38 820.82,-1148.25 813,-1069 805.75,-995.58 812.17,-976.77 813,-903 813.43,-864.48 814.39,-821.29 815.26,-787.1"/>
<polygon fill="black" stroke="black" points="818.77,-786.88 815.53,-776.79 811.77,-786.7 818.77,-786.88"/>
<text text-anchor="middle" x="826.5" y="-873.8" font-family="Times,serif" font-size="14.00">non</text>
</g>
<!-- can_you_spend_days_on_your_tooling -->
<g id="node19" class="node">
<title>can_you_spend_days_on_your_tooling</title>
<polygon fill="none" stroke="black" points="1133,-1069 822,-986 1133,-903 1444,-986 1133,-1069"/>
<text text-anchor="middle" x="1133" y="-1012.3" font-family="Times,serif" font-size="14.00">Pouvez&#45;vous vous permettre</text>
<text text-anchor="middle" x="1133" y="-997.3" font-family="Times,serif" font-size="14.00"> &#160;&#160;&#160;de passer des jours à corriger votre</text>
<text text-anchor="middle" x="1133" y="-982.3" font-family="Times,serif" font-size="14.00"> &#160;&#160;&#160;outillage toutes les quelques semaines</text>
<text text-anchor="middle" x="1133" y="-967.3" font-family="Times,serif" font-size="14.00"> &#160;&#160;&#160;à cause de bugs, d’incompatibilités</text>
<text text-anchor="middle" x="1133" y="-952.3" font-family="Times,serif" font-size="14.00"> &#160;&#160;&#160;et de changements des standards ?</text>
</g>
<!-- are_you_using_dangerous_features&#45;&gt;can_you_spend_days_on_your_tooling -->
<g id="edge25" class="edge">
<title>are_you_using_dangerous_features&#45;&gt;can_you_spend_days_on_your_tooling</title>
<path fill="none" stroke="black" d="M919.41,-1306.97C964.44,-1239.51 1033.37,-1136.26 1080.67,-1065.39"/>
<polygon fill="black" stroke="black" points="1083.69,-1067.18 1086.33,-1056.92 1077.87,-1063.29 1083.69,-1067.18"/>
<text text-anchor="middle" x="1074" y="-1177.3" font-family="Times,serif" font-size="14.00">oui</text>
</g>
<!-- give_it_two_months -->
<g id="node21" class="node">
<title>give_it_two_months</title>
<polygon fill="none" stroke="black" points="825,-620 403,-620 403,-402 825,-402 825,-620"/>
<text text-anchor="middle" x="614" y="-604.8" font-family="Times,serif" font-size="14.00">À moins que nous ne parlions de React</text>
<text text-anchor="middle" x="614" y="-589.8" font-family="Times,serif" font-size="14.00"> &#160;&#160;&#160;qui est testé lourdement avant chaque sortie,</text>
<text text-anchor="middle" x="614" y="-574.8" font-family="Times,serif" font-size="14.00"> &#160;&#160;&#160;envisagez de ralentir votre rythme de mise</text>
<text text-anchor="middle" x="614" y="-559.8" font-family="Times,serif" font-size="14.00"> &#160;&#160;&#160;à jour de paquets. Vous pouvez essayer les</text>
<text text-anchor="middle" x="614" y="-544.8" font-family="Times,serif" font-size="14.00"> &#160;&#160;&#160;nouvelles versions des dépendances mais c’est</text>
<text text-anchor="middle" x="614" y="-529.8" font-family="Times,serif" font-size="14.00"> &#160;&#160;&#160;mieux de les garder dans une branche à part</text>
<text text-anchor="middle" x="614" y="-514.8" font-family="Times,serif" font-size="14.00"> &#160;&#160;&#160;pour quelques mois pendant que la communauté</text>
<text text-anchor="middle" x="614" y="-499.8" font-family="Times,serif" font-size="14.00"> &#160;&#160;&#160;cherche et corrige les problèmes les plus</text>
<text text-anchor="middle" x="614" y="-484.8" font-family="Times,serif" font-size="14.00"> &#160;&#160;&#160;courants. Ne prenez pas de décisions en ayant</text>
<text text-anchor="middle" x="614" y="-469.8" font-family="Times,serif" font-size="14.00"> &#160;&#160;&#160;peur de passer à côté de quelque&#45;chose ! Si</text>
<text text-anchor="middle" x="614" y="-454.8" font-family="Times,serif" font-size="14.00"> &#160;&#160;&#160;vous cherchez de la documentation plus vieille,</text>
<text text-anchor="middle" x="614" y="-439.8" font-family="Times,serif" font-size="14.00"> &#160;&#160;&#160;n’oubliez pas de regarder les anciennes</text>
<text text-anchor="middle" x="614" y="-424.8" font-family="Times,serif" font-size="14.00"> &#160;&#160;&#160;sorties de versions sur GitHub, par exemple</text>
<text text-anchor="middle" x="614" y="-409.8" font-family="Times,serif" font-size="14.00"> &#160;&#160;&#160;https://github.com/reactjs/react&#45;router/tree/0.13.x/doc</text>
</g>
<!-- do_you_update_packages_asap&#45;&gt;give_it_two_months -->
<g id="edge30" class="edge">
<title>do_you_update_packages_asap&#45;&gt;give_it_two_months</title>
<path fill="none" stroke="black" d="M774.2,-678.51C759.61,-663.35 742.57,-645.64 725.14,-627.52"/>
<polygon fill="black" stroke="black" points="727.64,-625.07 718.19,-620.29 722.6,-629.93 727.64,-625.07"/>
<text text-anchor="middle" x="756" y="-641.8" font-family="Times,serif" font-size="14.00">oui</text>
</g>
<!-- consider_updating_react -->
<g id="node22" class="node">
<title>consider_updating_react</title>
<polygon fill="none" stroke="black" points="1198.5,-590 843.5,-590 843.5,-432 1198.5,-432 1198.5,-590"/>
<text text-anchor="middle" x="1021" y="-574.8" font-family="Times,serif" font-size="14.00">C’est judicieux. Cependant, nous vous</text>
<text text-anchor="middle" x="1021" y="-559.8" font-family="Times,serif" font-size="14.00"> &#160;&#160;&#160;encourageons à essayer (dans une branche à</text>
<text text-anchor="middle" x="1021" y="-544.8" font-family="Times,serif" font-size="14.00"> &#160;&#160;&#160;part !) les nouvelles versions de React</text>
<text text-anchor="middle" x="1021" y="-529.8" font-family="Times,serif" font-size="14.00"> &#160;&#160;&#160;dès leur sortie. Contrairement à beaucoup</text>
<text text-anchor="middle" x="1021" y="-514.8" font-family="Times,serif" font-size="14.00"> &#160;&#160;&#160;de paquets de la communauté, elles sont</text>
<text text-anchor="middle" x="1021" y="-499.8" font-family="Times,serif" font-size="14.00"> &#160;&#160;&#160;testées en profondeur par Facebook. Gardez</text>
<text text-anchor="middle" x="1021" y="-484.8" font-family="Times,serif" font-size="14.00"> &#160;&#160;&#160;un œil sur les notes de version qui</text>
<text text-anchor="middle" x="1021" y="-469.8" font-family="Times,serif" font-size="14.00"> &#160;&#160;&#160;fournissent des liens vers des scripts qui</text>
<text text-anchor="middle" x="1021" y="-454.8" font-family="Times,serif" font-size="14.00"> &#160;&#160;&#160;automatisent des parties du processus de</text>
<text text-anchor="middle" x="1021" y="-439.8" font-family="Times,serif" font-size="14.00"> &#160;&#160;&#160;migration à votre place.</text>
</g>
<!-- do_you_update_packages_asap&#45;&gt;consider_updating_react -->
<g id="edge31" class="edge">
<title>do_you_update_packages_asap&#45;&gt;consider_updating_react</title>
<path fill="none" stroke="black" d="M860.01,-678.51C882.76,-654.98 911.48,-625.28 938.33,-597.5"/>
<polygon fill="black" stroke="black" points="941.05,-599.73 945.48,-590.11 936.02,-594.86 941.05,-599.73"/>
<text text-anchor="middle" x="907.5" y="-641.8" font-family="Times,serif" font-size="14.00">non</text>
</g>
<!-- can_you_spend_days_on_your_tooling&#45;&gt;do_you_update_packages_asap -->
<g id="edge27" class="edge">
<title>can_you_spend_days_on_your_tooling&#45;&gt;do_you_update_packages_asap</title>
<path fill="none" stroke="black" d="M1035.51,-928.97C1000.44,-906.92 961.54,-880.14 929,-852 903.73,-830.15 878.82,-802.67 858.93,-778.86"/>
<polygon fill="black" stroke="black" points="861.46,-776.42 852.39,-770.94 856.06,-780.88 861.46,-776.42"/>
<text text-anchor="middle" x="940" y="-829.3" font-family="Times,serif" font-size="14.00">oui</text>
</g>
<!-- stick_to_es2015 -->
<g id="node20" class="node">
<title>stick_to_es2015</title>
<polygon fill="none" stroke="black" points="1252.5,-852 959.5,-852 959.5,-814 1252.5,-814 1252.5,-852"/>
<text text-anchor="middle" x="1106" y="-836.8" font-family="Times,serif" font-size="14.00">Restez&#45;en à ES2015, JSX et</text>
<text text-anchor="middle" x="1106" y="-821.8" font-family="Times,serif" font-size="14.00"> &#160;&#160;&#160;l’opérateur de propagation d’objets.</text>
</g>
<!-- can_you_spend_days_on_your_tooling&#45;&gt;stick_to_es2015 -->
<g id="edge28" class="edge">
<title>can_you_spend_days_on_your_tooling&#45;&gt;stick_to_es2015</title>
<path fill="none" stroke="black" d="M1118.95,-906.4C1116.1,-890.5 1113.29,-874.79 1111.02,-862.08"/>
<polygon fill="black" stroke="black" points="1114.46,-861.41 1109.25,-852.18 1107.57,-862.64 1114.46,-861.41"/>
<text text-anchor="middle" x="1127.5" y="-873.8" font-family="Times,serif" font-size="14.00">non</text>
</g>
<!-- stick_to_es2015&#45;&gt;do_you_update_packages_asap -->
<g id="edge29" class="edge">
<title>stick_to_es2015&#45;&gt;do_you_update_packages_asap</title>
<path fill="none" stroke="black" d="M1057.3,-813.97C1020.2,-800.23 967.77,-780.82 921.35,-763.63"/>
<polygon fill="black" stroke="black" points="922.44,-760.31 911.85,-760.12 920.01,-766.87 922.44,-760.31"/>
</g>
<!-- are_you_still_sad -->
<g id="node23" class="node">
<title>are_you_still_sad</title>
<polygon fill="none" stroke="black" points="817,-365 627.81,-347 817,-329 1006.19,-347 817,-365"/>
<text text-anchor="middle" x="817" y="-343.3" font-family="Times,serif" font-size="14.00">Êtes&#45;vous toujours triste ?</text>
</g>
<!-- give_it_two_months&#45;&gt;are_you_still_sad -->
<g id="edge32" class="edge">
<title>give_it_two_months&#45;&gt;are_you_still_sad</title>
<path fill="none" stroke="black" d="M749.4,-401.94C764.47,-389.92 778.41,-378.79 789.67,-369.81"/>
<polygon fill="black" stroke="black" points="792.1,-372.35 797.74,-363.37 787.74,-366.87 792.1,-372.35"/>
</g>
<!-- consider_updating_react&#45;&gt;are_you_still_sad -->
<g id="edge33" class="edge">
<title>consider_updating_react&#45;&gt;are_you_still_sad</title>
<path fill="none" stroke="black" d="M922.59,-431.85C893.75,-408.95 864.53,-385.75 844.17,-369.57"/>
<polygon fill="black" stroke="black" points="846.28,-366.78 836.28,-363.31 841.93,-372.27 846.28,-366.78"/>
</g>
<!-- rant -->
<g id="node24" class="node">
<title>rant</title>
<polygon fill="none" stroke="black" points="882,-278 552,-278 552,-165 882,-165 882,-278"/>
<text text-anchor="middle" x="717" y="-262.8" font-family="Times,serif" font-size="14.00">Écrivez un billet de blog</text>
<text text-anchor="middle" x="717" y="-247.8" font-family="Times,serif" font-size="14.00"> &#160;&#160;&#160;constructif sur les problèmes rencontrés.</text>
<text text-anchor="middle" x="717" y="-232.8" font-family="Times,serif" font-size="14.00"> &#160;&#160;&#160;Abstenez&#45;vous d’attaques personnelles.</text>
<text text-anchor="middle" x="717" y="-217.8" font-family="Times,serif" font-size="14.00"> &#160;&#160;&#160;Soyez poli. Aidez la communauté à</text>
<text text-anchor="middle" x="717" y="-202.8" font-family="Times,serif" font-size="14.00"> &#160;&#160;&#160;trouver des solutions. Envisagez</text>
<text text-anchor="middle" x="717" y="-187.8" font-family="Times,serif" font-size="14.00"> &#160;&#160;&#160;d’autres solutions qui remplissent</text>
<text text-anchor="middle" x="717" y="-172.8" font-family="Times,serif" font-size="14.00"> &#160;&#160;&#160;mieux vos besoins (comme Ember).</text>
</g>
<!-- are_you_still_sad&#45;&gt;rant -->
<g id="edge34" class="edge">
<title>are_you_still_sad&#45;&gt;rant</title>
<path fill="none" stroke="black" d="M804.13,-330.11C794.88,-318.69 781.75,-302.47 768.48,-286.08"/>
<polygon fill="black" stroke="black" points="770.99,-283.61 761.97,-278.04 765.55,-288.02 770.99,-283.61"/>
<text text-anchor="middle" x="798" y="-299.8" font-family="Times,serif" font-size="14.00">oui</text>
</g>
<!-- happy -->
<g id="node25" class="node">
<title>happy</title>
<polygon fill="none" stroke="black" points="1004,-128 630,-128 630,-90 1004,-90 1004,-128"/>
<text text-anchor="middle" x="817" y="-112.8" font-family="Times,serif" font-size="14.00">React vous a redonné le sourire !</text>
<text text-anchor="middle" x="817" y="-97.8" font-family="Times,serif" font-size="14.00"> &#160;&#160;&#160;Tout du moins, il ne vous rend plus aussi triste.</text>
</g>
<!-- are_you_still_sad&#45;&gt;happy -->
<g id="edge35" class="edge">
<title>are_you_still_sad&#45;&gt;happy</title>
<path fill="none" stroke="black" d="M841.66,-331.3C859.05,-319.39 880.97,-300.84 891,-278 911.19,-232.02 913.56,-209.87 891,-165 884.69,-152.46 874.02,-142.05 862.72,-133.79"/>
<polygon fill="black" stroke="black" points="864.66,-130.88 854.43,-128.16 860.73,-136.67 864.66,-130.88"/>
<text text-anchor="middle" x="920.5" y="-217.8" font-family="Times,serif" font-size="14.00">non</text>
</g>
<!-- rant&#45;&gt;happy -->
<g id="edge36" class="edge">
<title>rant&#45;&gt;happy</title>
<path fill="none" stroke="black" d="M767.29,-164.93C776.53,-154.72 785.75,-144.53 793.7,-135.75"/>
<polygon fill="black" stroke="black" points="796.49,-137.88 800.6,-128.12 791.3,-133.19 796.49,-137.88"/>
</g>
<!-- share -->
<g id="node26" class="node">
<title>share</title>
<path fill="none" stroke="black" d="M1079,-53C1079,-53 555,-53 555,-53 549,-53 543,-47 543,-41 543,-41 543,-12 543,-12 543,-6 549,0 555,0 555,0 1079,0 1079,0 1085,0 1091,-6 1091,-12 1091,-12 1091,-41 1091,-41 1091,-47 1085,-53 1079,-53"/>
<text text-anchor="middle" x="817" y="-37.8" font-family="Times,serif" font-size="14.00">Partagez ce diagramme : http://bit.ly/react&#45;vous&#45;rend&#45;triste.</text>
<text text-anchor="middle" x="817" y="-22.8" font-family="Times,serif" font-size="14.00"> &#160;&#160;&#160;Basé sur et inspiré par https://github.com/petehunt/react&#45;howto.</text>
<text text-anchor="middle" x="817" y="-7.8" font-family="Times,serif" font-size="14.00"> &#160;&#160;&#160;Traduit de l’anglais de https://github.com/gaearon/react&#45;makes&#45;you&#45;sad.</text>
</g>
<!-- happy&#45;&gt;share -->
<g id="edge37" class="edge">
<title>happy&#45;&gt;share</title>
<path fill="none" stroke="black" d="M817,-89.73C817,-81.85 817,-72.34 817,-63.15"/>
<polygon fill="black" stroke="black" points="820.5,-63.02 817,-53.02 813.5,-63.02 820.5,-63.02"/>
</g>
</g>
</svg>
