<?xml version="1.0" encoding="UTF-8" standalone="no"?>
<!DOCTYPE svg PUBLIC "-//W3C//DTD SVG 1.1//EN"
 "http://www.w3.org/Graphics/SVG/1.1/DTD/svg11.dtd">
<!-- Generated by graphviz version 2.38.0 (20140413.2041)
 -->
<!-- Title: %3 Pages: 1 -->
<svg width="1294pt" height="3037pt"
 viewBox="0.00 0.00 1293.50 3037.00" xmlns="http://www.w3.org/2000/svg" xmlns:xlink="http://www.w3.org/1999/xlink">
<g id="graph0" class="graph" transform="scale(1 1) rotate(0) translate(4 3033)">
<title>%3</title>
<polygon fill="white" stroke="none" points="-4,4 -4,-3033 1289.5,-3033 1289.5,4 -4,4"/>
<!-- unhappy -->
<g id="node1" class="node"><title>unhappy</title>
<path fill="none" stroke="black" d="M392,-3029C392,-3029 277,-3029 277,-3029 271,-3029 265,-3023 265,-3017 265,-3017 265,-3005 265,-3005 265,-2999 271,-2993 277,-2993 277,-2993 392,-2993 392,-2993 398,-2993 404,-2999 404,-3005 404,-3005 404,-3017 404,-3017 404,-3023 398,-3029 392,-3029"/>
<text text-anchor="middle" x="334.5" y="-3007.3" font-family="Times,serif" font-size="14.00">React vous rend triste.</text>
</g>
<!-- are_you_using_react_boilerplates -->
<g id="node2" class="node"><title>are_you_using_react_boilerplates</title>
<polygon fill="none" stroke="black" points="334.5,-2956 145.5,-2918 334.5,-2880 523.5,-2918 334.5,-2956"/>
<text text-anchor="middle" x="334.5" y="-2921.8" font-family="Times,serif" font-size="14.00">Apprenez&#45;vous React</text>
<text text-anchor="middle" x="334.5" y="-2906.8" font-family="Times,serif" font-size="14.00"> &#160;&#160;&#160;en copiant du code&#45;modèle ?</text>
</g>
<!-- unhappy&#45;&gt;are_you_using_react_boilerplates -->
<g id="edge1" class="edge"><title>unhappy&#45;&gt;are_you_using_react_boilerplates</title>
<path fill="none" stroke="black" d="M334.5,-2992.88C334.5,-2985.25 334.5,-2975.83 334.5,-2966.31"/>
<polygon fill="black" stroke="black" points="338,-2966.02 334.5,-2956.02 331,-2966.02 338,-2966.02"/>
</g>
<!-- boilerplates_dont_teach -->
<g id="node3" class="node"><title>boilerplates_dont_teach</title>
<polygon fill="none" stroke="black" points="339,-2829 0,-2829 0,-2551 339,-2551 339,-2829"/>
<text text-anchor="middle" x="169.5" y="-2813.8" font-family="Times,serif" font-size="14.00">Apprendre React en copiant du code&#45;modèle,</text>
<text text-anchor="middle" x="169.5" y="-2798.8" font-family="Times,serif" font-size="14.00"> &#160;&#160;&#160;c&#39;est comme apprendre à cuisiner en mangeant</text>
<text text-anchor="middle" x="169.5" y="-2783.8" font-family="Times,serif" font-size="14.00"> &#160;&#160;&#160;dans des restaurants gastronomiques. Ça ne marche pas.</text>
<text text-anchor="middle" x="169.5" y="-2768.8" font-family="Times,serif" font-size="14.00"> &#160;&#160;&#160;Vous devez débuter par les bases et ignorer la peur</text>
<text text-anchor="middle" x="169.5" y="-2753.8" font-family="Times,serif" font-size="14.00"> &#160;&#160;&#160;infondée de passer à côté de quelque&#45;chose.</text>
<text text-anchor="middle" x="169.5" y="-2738.8" font-family="Times,serif" font-size="14.00"> &#160;&#160;&#160;Les gens créent des modèles de code pour montrer</text>
<text text-anchor="middle" x="169.5" y="-2723.8" font-family="Times,serif" font-size="14.00"> &#160;&#160;&#160;ce qu&#39;ils savent faire ou ce qu&#39;ils ont appris,</text>
<text text-anchor="middle" x="169.5" y="-2708.8" font-family="Times,serif" font-size="14.00"> &#160;&#160;&#160;pas pour vous aider à apprendre. Ils sont créés</text>
<text text-anchor="middle" x="169.5" y="-2693.8" font-family="Times,serif" font-size="14.00"> &#160;&#160;&#160;pour et par des utilisateurs expérimentés, et</text>
<text text-anchor="middle" x="169.5" y="-2678.8" font-family="Times,serif" font-size="14.00"> &#160;&#160;&#160;sont souvent bien plus expérimentaux qu&#39;ils</text>
<text text-anchor="middle" x="169.5" y="-2663.8" font-family="Times,serif" font-size="14.00"> &#160;&#160;&#160;ne veulent bien l&#39;admettre. Les différents</text>
<text text-anchor="middle" x="169.5" y="-2648.8" font-family="Times,serif" font-size="14.00"> &#160;&#160;&#160;codes&#45;modèles concourrent pour avoir de l&#39;attention,</text>
<text text-anchor="middle" x="169.5" y="-2633.8" font-family="Times,serif" font-size="14.00"> &#160;&#160;&#160;ce qui mène à plus de surcharge. Si vous voulez</text>
<text text-anchor="middle" x="169.5" y="-2618.8" font-family="Times,serif" font-size="14.00"> &#160;&#160;&#160;vraiment apprendre React, apprenez&#45;le dans</text>
<text text-anchor="middle" x="169.5" y="-2603.8" font-family="Times,serif" font-size="14.00"> &#160;&#160;&#160;l&#39;ordre préconisé par Pete Hunt dans son guide :</text>
<text text-anchor="middle" x="169.5" y="-2588.8" font-family="Times,serif" font-size="14.00"> &#160;&#160;&#160;https://github.com/petehunt/react&#45;howto (en anglais).</text>
<text text-anchor="middle" x="169.5" y="-2573.8" font-family="Times,serif" font-size="14.00"> &#160;&#160;&#160;Ne regardez pas du code&#45;modèle avant de</text>
<text text-anchor="middle" x="169.5" y="-2558.8" font-family="Times,serif" font-size="14.00"> &#160;&#160;&#160;savoir en créer.</text>
</g>
<!-- are_you_using_react_boilerplates&#45;&gt;boilerplates_dont_teach -->
<g id="edge2" class="edge"><title>are_you_using_react_boilerplates&#45;&gt;boilerplates_dont_teach</title>
<path fill="none" stroke="black" d="M310.86,-2884.62C301.2,-2871.39 289.295,-2855.08 276.527,-2837.59"/>
<polygon fill="black" stroke="black" points="279.329,-2835.5 270.605,-2829.48 273.675,-2839.62 279.329,-2835.5"/>
<text text-anchor="middle" x="299.5" y="-2850.8" font-family="Times,serif" font-size="14.00">oui</text>
</g>
<!-- steal_from_boilerplates -->
<g id="node4" class="node"><title>steal_from_boilerplates</title>
<polygon fill="none" stroke="black" points="644,-2799 357,-2799 357,-2581 644,-2581 644,-2799"/>
<text text-anchor="middle" x="500.5" y="-2783.8" font-family="Times,serif" font-size="14.00">Le code&#45;modèle n&#39;est pas une bonne</text>
<text text-anchor="middle" x="500.5" y="-2768.8" font-family="Times,serif" font-size="14.00"> &#160;&#160;&#160;manière d&#39;apprendre les technologies qui</text>
<text text-anchor="middle" x="500.5" y="-2753.8" font-family="Times,serif" font-size="14.00"> &#160;&#160;&#160;y sont combinées. Pourtant, il est utile de</text>
<text text-anchor="middle" x="500.5" y="-2738.8" font-family="Times,serif" font-size="14.00"> &#160;&#160;&#160;voir comment ces technologies peuvent être</text>
<text text-anchor="middle" x="500.5" y="-2723.8" font-family="Times,serif" font-size="14.00"> &#160;&#160;&#160;utilisées ensemble *une fois que* vous êtes</text>
<text text-anchor="middle" x="500.5" y="-2708.8" font-family="Times,serif" font-size="14.00"> &#160;&#160;&#160;à l&#39;aise avec chacune d&#39;entre elles</text>
<text text-anchor="middle" x="500.5" y="-2693.8" font-family="Times,serif" font-size="14.00"> &#160;&#160;&#160;séparément. C&#39;est une bonne façon de</text>
<text text-anchor="middle" x="500.5" y="-2678.8" font-family="Times,serif" font-size="14.00"> &#160;&#160;&#160;découvrir de nouvelles technologies mais vous</text>
<text text-anchor="middle" x="500.5" y="-2663.8" font-family="Times,serif" font-size="14.00"> &#160;&#160;&#160;ne devriez pas vous sentir obligés de toutes</text>
<text text-anchor="middle" x="500.5" y="-2648.8" font-family="Times,serif" font-size="14.00"> &#160;&#160;&#160;les utiliser. N&#39;abandonnez pas totalement</text>
<text text-anchor="middle" x="500.5" y="-2633.8" font-family="Times,serif" font-size="14.00"> &#160;&#160;&#160;le code&#45;modèle. Gardez juste à l&#39;esprit</text>
<text text-anchor="middle" x="500.5" y="-2618.8" font-family="Times,serif" font-size="14.00"> &#160;&#160;&#160;qu&#39;un modèle de code n&#39;est qu&#39;une liste</text>
<text text-anchor="middle" x="500.5" y="-2603.8" font-family="Times,serif" font-size="14.00"> &#160;&#160;&#160;d&#39;astuces, pas une base solide pour votre</text>
<text text-anchor="middle" x="500.5" y="-2588.8" font-family="Times,serif" font-size="14.00"> &#160;&#160;&#160;application.</text>
</g>
<!-- are_you_using_react_boilerplates&#45;&gt;steal_from_boilerplates -->
<g id="edge3" class="edge"><title>are_you_using_react_boilerplates&#45;&gt;steal_from_boilerplates</title>
<path fill="none" stroke="black" d="M358.284,-2884.62C373.42,-2864.01 394.038,-2835.94 414.876,-2807.57"/>
<polygon fill="black" stroke="black" points="417.95,-2809.3 421.049,-2799.17 412.308,-2805.16 417.95,-2809.3"/>
<text text-anchor="middle" x="395" y="-2850.8" font-family="Times,serif" font-size="14.00">non</text>
</g>
<!-- are_you_using_flux -->
<g id="node5" class="node"><title>are_you_using_flux</title>
<polygon fill="none" stroke="black" points="372.5,-2514 214.5,-2476 372.5,-2438 530.5,-2476 372.5,-2514"/>
<text text-anchor="middle" x="372.5" y="-2479.8" font-family="Times,serif" font-size="14.00">Utilisez&#45;vous une librairie</text>
<text text-anchor="middle" x="372.5" y="-2464.8" font-family="Times,serif" font-size="14.00"> &#160;&#160;&#160;Flux (ou Redux) ?</text>
</g>
<!-- boilerplates_dont_teach&#45;&gt;are_you_using_flux -->
<g id="edge4" class="edge"><title>boilerplates_dont_teach&#45;&gt;are_you_using_flux</title>
<path fill="none" stroke="black" d="M301.785,-2550.85C314.297,-2537.78 326.12,-2525.44 336.388,-2514.71"/>
<polygon fill="black" stroke="black" points="339.189,-2516.85 343.578,-2507.2 334.134,-2512.01 339.189,-2516.85"/>
</g>
<!-- steal_from_boilerplates&#45;&gt;are_you_using_flux -->
<g id="edge5" class="edge"><title>steal_from_boilerplates&#45;&gt;are_you_using_flux</title>
<path fill="none" stroke="black" d="M435.188,-2580.83C421.628,-2558.37 408.147,-2536.04 397.181,-2517.88"/>
<polygon fill="black" stroke="black" points="400.175,-2516.07 392.01,-2509.31 394.183,-2519.68 400.175,-2516.07"/>
</g>
<!-- is_too_much_flux -->
<g id="node6" class="node"><title>is_too_much_flux</title>
<polygon fill="none" stroke="black" points="257.5,-2372 73.5,-2319 257.5,-2266 441.5,-2319 257.5,-2372"/>
<text text-anchor="middle" x="257.5" y="-2330.3" font-family="Times,serif" font-size="14.00">Est&#45;ce qu&#39;elle ajoute beaucoup</text>
<text text-anchor="middle" x="257.5" y="-2315.3" font-family="Times,serif" font-size="14.00"> &#160;&#160;&#160;de répétitions sans régler de</text>
<text text-anchor="middle" x="257.5" y="-2300.3" font-family="Times,serif" font-size="14.00"> &#160;&#160;&#160;problèmes évidents ?</text>
</g>
<!-- are_you_using_flux&#45;&gt;is_too_much_flux -->
<g id="edge6" class="edge"><title>are_you_using_flux&#45;&gt;is_too_much_flux</title>
<path fill="none" stroke="black" d="M348.951,-2443.26C333.55,-2422.5 313.086,-2394.92 295.422,-2371.11"/>
<polygon fill="black" stroke="black" points="298.073,-2368.81 289.304,-2362.87 292.451,-2372.98 298.073,-2368.81"/>
<text text-anchor="middle" x="338.5" y="-2408.8" font-family="Times,serif" font-size="14.00">oui</text>
</g>
<!-- is_not_enough_flux -->
<g id="node7" class="node"><title>is_not_enough_flux</title>
<polygon fill="none" stroke="black" points="680.5,-2387 459.5,-2319 680.5,-2251 901.5,-2319 680.5,-2387"/>
<text text-anchor="middle" x="680.5" y="-2337.8" font-family="Times,serif" font-size="14.00">Avez&#45;vous quelques composants</text>
<text text-anchor="middle" x="680.5" y="-2322.8" font-family="Times,serif" font-size="14.00"> &#160;&#160;&#160;à états surchargés en haut de votre</text>
<text text-anchor="middle" x="680.5" y="-2307.8" font-family="Times,serif" font-size="14.00"> &#160;&#160;&#160;hiérarchie de composants, qui sont</text>
<text text-anchor="middle" x="680.5" y="-2292.8" font-family="Times,serif" font-size="14.00"> &#160;&#160;&#160;souvent à la source de bugs ?</text>
</g>
<!-- are_you_using_flux&#45;&gt;is_not_enough_flux -->
<g id="edge7" class="edge"><title>are_you_using_flux&#45;&gt;is_not_enough_flux</title>
<path fill="none" stroke="black" d="M422.328,-2449.92C467.163,-2427.36 534.175,-2393.64 588.69,-2366.2"/>
<polygon fill="black" stroke="black" points="590.313,-2369.3 597.672,-2361.68 587.166,-2363.05 590.313,-2369.3"/>
<text text-anchor="middle" x="519" y="-2408.8" font-family="Times,serif" font-size="14.00">non</text>
</g>
<!-- remove_flux -->
<g id="node8" class="node"><title>remove_flux</title>
<polygon fill="none" stroke="black" points="399,-2200 128,-2200 128,-2102 399,-2102 399,-2200"/>
<text text-anchor="middle" x="263.5" y="-2184.8" font-family="Times,serif" font-size="14.00">Supprimez la librairie Flux.</text>
<text text-anchor="middle" x="263.5" y="-2169.8" font-family="Times,serif" font-size="14.00"> &#160;&#160;&#160;Acquérez une bonne intuition de la manière</text>
<text text-anchor="middle" x="263.5" y="-2154.8" font-family="Times,serif" font-size="14.00"> &#160;&#160;&#160;dont il faut structurer les applications</text>
<text text-anchor="middle" x="263.5" y="-2139.8" font-family="Times,serif" font-size="14.00"> &#160;&#160;&#160;React de base en lisant</text>
<text text-anchor="middle" x="263.5" y="-2124.8" font-family="Times,serif" font-size="14.00"> &#160;&#160;&#160;« Thinking in React » (en anglais)</text>
<text text-anchor="middle" x="263.5" y="-2109.8" font-family="Times,serif" font-size="14.00"> &#160;&#160;&#160;dans la documentation officielle.</text>
</g>
<!-- is_too_much_flux&#45;&gt;remove_flux -->
<g id="edge8" class="edge"><title>is_too_much_flux&#45;&gt;remove_flux</title>
<path fill="none" stroke="black" d="M259.366,-2266.39C260.007,-2248.64 260.729,-2228.65 261.389,-2210.41"/>
<polygon fill="black" stroke="black" points="264.895,-2210.3 261.758,-2200.18 257.899,-2210.05 264.895,-2210.3"/>
<text text-anchor="middle" x="270.5" y="-2221.8" font-family="Times,serif" font-size="14.00">oui</text>
</g>
<!-- are_you_using_bundler -->
<g id="node9" class="node"><title>are_you_using_bundler</title>
<polygon fill="none" stroke="black" points="464.5,-2065 209.5,-2027 464.5,-1989 719.5,-2027 464.5,-2065"/>
<text text-anchor="middle" x="464.5" y="-2030.8" font-family="Times,serif" font-size="14.00">Utilisez vous un paqueteur JavaScript</text>
<text text-anchor="middle" x="464.5" y="-2015.8" font-family="Times,serif" font-size="14.00"> &#160;&#160;&#160;(par exemple Webpack ou Browserify) ?</text>
</g>
<!-- is_too_much_flux&#45;&gt;are_you_using_bundler -->
<g id="edge9" class="edge"><title>is_too_much_flux&#45;&gt;are_you_using_bundler</title>
<path fill="none" stroke="black" d="M317.184,-2283.06C347.961,-2262.36 383.892,-2233.63 407.5,-2200 434.101,-2162.11 448.955,-2110.94 456.777,-2074.29"/>
<polygon fill="black" stroke="black" points="460.233,-2074.85 458.8,-2064.35 453.374,-2073.45 460.233,-2074.85"/>
<text text-anchor="middle" x="461" y="-2147.3" font-family="Times,serif" font-size="14.00">non</text>
</g>
<!-- is_not_enough_flux&#45;&gt;are_you_using_bundler -->
<g id="edge11" class="edge"><title>is_not_enough_flux&#45;&gt;are_you_using_bundler</title>
<path fill="none" stroke="black" d="M592.606,-2277.85C559.726,-2258.69 524.947,-2232.71 502.5,-2200 488.724,-2179.92 477.383,-2118.28 470.779,-2074.54"/>
<polygon fill="black" stroke="black" points="474.204,-2073.78 469.283,-2064.4 467.279,-2074.8 474.204,-2073.78"/>
<text text-anchor="middle" x="513" y="-2147.3" font-family="Times,serif" font-size="14.00">non</text>
</g>
<!-- add_flux -->
<g id="node10" class="node"><title>add_flux</title>
<polygon fill="none" stroke="black" points="822.5,-2185 532.5,-2185 532.5,-2117 822.5,-2117 822.5,-2185"/>
<text text-anchor="middle" x="677.5" y="-2169.8" font-family="Times,serif" font-size="14.00">Réfléchissez à ajouter une librairie Flux.</text>
<text text-anchor="middle" x="677.5" y="-2154.8" font-family="Times,serif" font-size="14.00"> &#160;&#160;&#160;Elle peut vous aider à externaliser les états</text>
<text text-anchor="middle" x="677.5" y="-2139.8" font-family="Times,serif" font-size="14.00"> &#160;&#160;&#160;partagés entre beaucoup de composants et à les</text>
<text text-anchor="middle" x="677.5" y="-2124.8" font-family="Times,serif" font-size="14.00"> &#160;&#160;&#160;maintenir à jour de manière cohérente.</text>
</g>
<!-- is_not_enough_flux&#45;&gt;add_flux -->
<g id="edge10" class="edge"><title>is_not_enough_flux&#45;&gt;add_flux</title>
<path fill="none" stroke="black" d="M679.288,-2250.96C678.949,-2232.18 678.589,-2212.27 678.282,-2195.27"/>
<polygon fill="black" stroke="black" points="681.778,-2195.03 678.098,-2185.1 674.78,-2195.16 681.778,-2195.03"/>
<text text-anchor="middle" x="687.5" y="-2221.8" font-family="Times,serif" font-size="14.00">oui</text>
</g>
<!-- remove_flux&#45;&gt;are_you_using_bundler -->
<g id="edge13" class="edge"><title>remove_flux&#45;&gt;are_you_using_bundler</title>
<path fill="none" stroke="black" d="M342.652,-2101.96C363.992,-2089 386.679,-2075.23 406.619,-2063.13"/>
<polygon fill="black" stroke="black" points="408.545,-2066.06 415.277,-2057.88 404.912,-2060.07 408.545,-2066.06"/>
</g>
<!-- are_you_working_on_production_app_with_bundler -->
<g id="node11" class="node"><title>are_you_working_on_production_app_with_bundler</title>
<polygon fill="none" stroke="black" points="360.5,-1938 180.5,-1900 360.5,-1862 540.5,-1900 360.5,-1938"/>
<text text-anchor="middle" x="360.5" y="-1903.8" font-family="Times,serif" font-size="14.00">Travaillez&#45;vous sur une</text>
<text text-anchor="middle" x="360.5" y="-1888.8" font-family="Times,serif" font-size="14.00"> &#160;&#160;&#160;application en production ?</text>
</g>
<!-- are_you_using_bundler&#45;&gt;are_you_working_on_production_app_with_bundler -->
<g id="edge14" class="edge"><title>are_you_using_bundler&#45;&gt;are_you_working_on_production_app_with_bundler</title>
<path fill="none" stroke="black" d="M436.903,-1992.83C423.561,-1976.79 407.446,-1957.43 393.463,-1940.62"/>
<polygon fill="black" stroke="black" points="395.877,-1938.05 386.791,-1932.6 390.496,-1942.53 395.877,-1938.05"/>
<text text-anchor="middle" x="428.5" y="-1959.8" font-family="Times,serif" font-size="14.00">oui</text>
</g>
<!-- are_you_working_on_production_app_without_bundler -->
<g id="node12" class="node"><title>are_you_working_on_production_app_without_bundler</title>
<polygon fill="none" stroke="black" points="738.5,-1938 558.5,-1900 738.5,-1862 918.5,-1900 738.5,-1938"/>
<text text-anchor="middle" x="738.5" y="-1903.8" font-family="Times,serif" font-size="14.00">Travaillez&#45;vous sur une</text>
<text text-anchor="middle" x="738.5" y="-1888.8" font-family="Times,serif" font-size="14.00"> &#160;&#160;&#160;application en production ?</text>
</g>
<!-- are_you_using_bundler&#45;&gt;are_you_working_on_production_app_without_bundler -->
<g id="edge15" class="edge"><title>are_you_using_bundler&#45;&gt;are_you_working_on_production_app_without_bundler</title>
<path fill="none" stroke="black" d="M525.65,-1998.1C569.53,-1978.08 628.57,-1951.15 673.338,-1930.73"/>
<polygon fill="black" stroke="black" points="675.018,-1933.81 682.664,-1926.47 672.113,-1927.44 675.018,-1933.81"/>
<text text-anchor="middle" x="628" y="-1959.8" font-family="Times,serif" font-size="14.00">non</text>
</g>
<!-- add_flux&#45;&gt;are_you_using_bundler -->
<g id="edge12" class="edge"><title>add_flux&#45;&gt;are_you_using_bundler</title>
<path fill="none" stroke="black" d="M619.859,-2116.99C590.494,-2100.17 554.802,-2079.72 525.037,-2062.67"/>
<polygon fill="black" stroke="black" points="526.42,-2059.43 516.003,-2057.5 522.941,-2065.51 526.42,-2059.43"/>
</g>
<!-- do_you_know_es2015 -->
<g id="node13" class="node"><title>do_you_know_es2015</title>
<polygon fill="none" stroke="black" points="636.5,-1646 430.5,-1578 636.5,-1510 842.5,-1578 636.5,-1646"/>
<text text-anchor="middle" x="636.5" y="-1596.8" font-family="Times,serif" font-size="14.00">Vous sentez&#45;vous à l&#39;aise</text>
<text text-anchor="middle" x="636.5" y="-1581.8" font-family="Times,serif" font-size="14.00"> &#160;&#160;&#160;avec les fonctionnalités ES2015</text>
<text text-anchor="middle" x="636.5" y="-1566.8" font-family="Times,serif" font-size="14.00"> &#160;&#160;&#160;(par exemple les classes et les</text>
<text text-anchor="middle" x="636.5" y="-1551.8" font-family="Times,serif" font-size="14.00"> &#160;&#160;&#160;fonctions fléchées) ?</text>
</g>
<!-- are_you_working_on_production_app_with_bundler&#45;&gt;do_you_know_es2015 -->
<g id="edge16" class="edge"><title>are_you_working_on_production_app_with_bundler&#45;&gt;do_you_know_es2015</title>
<path fill="none" stroke="black" d="M344.793,-1865.14C326.138,-1819.36 302.07,-1737.24 340.5,-1683 371.711,-1638.95 423.123,-1613.42 474.415,-1598.67"/>
<polygon fill="black" stroke="black" points="475.608,-1601.98 484.326,-1595.96 473.756,-1595.23 475.608,-1601.98"/>
<text text-anchor="middle" x="349.5" y="-1743.3" font-family="Times,serif" font-size="14.00">oui</text>
</g>
<!-- remove_bundler -->
<g id="node14" class="node"><title>remove_bundler</title>
<polygon fill="none" stroke="black" points="651.5,-1811 367.5,-1811 367.5,-1683 651.5,-1683 651.5,-1811"/>
<text text-anchor="middle" x="509.5" y="-1795.8" font-family="Times,serif" font-size="14.00">Pas besoin de paqueteur si vous</text>
<text text-anchor="middle" x="509.5" y="-1780.8" font-family="Times,serif" font-size="14.00"> &#160;&#160;&#160;êtes en train d&#39;apprendre React.</text>
<text text-anchor="middle" x="509.5" y="-1765.8" font-family="Times,serif" font-size="14.00"> &#160;&#160;&#160;Copiez https://github.com/jarsbe/react&#45;simple</text>
<text text-anchor="middle" x="509.5" y="-1750.8" font-family="Times,serif" font-size="14.00"> &#160;&#160;&#160;et commencez à bidouiller sans faire de build.</text>
<text text-anchor="middle" x="509.5" y="-1735.8" font-family="Times,serif" font-size="14.00"> &#160;&#160;&#160;Utilisez des balises &lt;script&gt; jusqu&#39;à ce</text>
<text text-anchor="middle" x="509.5" y="-1720.8" font-family="Times,serif" font-size="14.00"> &#160;&#160;&#160;que vous soyez à l&#39;aise avec React et que vous</text>
<text text-anchor="middle" x="509.5" y="-1705.8" font-family="Times,serif" font-size="14.00"> &#160;&#160;&#160;vouliez en apprendre plus sur les systèmes de</text>
<text text-anchor="middle" x="509.5" y="-1690.8" font-family="Times,serif" font-size="14.00"> &#160;&#160;&#160;modules et les paqueteurs.</text>
</g>
<!-- are_you_working_on_production_app_with_bundler&#45;&gt;remove_bundler -->
<g id="edge17" class="edge"><title>are_you_working_on_production_app_with_bundler&#45;&gt;remove_bundler</title>
<path fill="none" stroke="black" d="M391.012,-1868.08C405.167,-1853.73 422.622,-1836.04 439.742,-1818.69"/>
<polygon fill="black" stroke="black" points="442.515,-1820.87 447.048,-1811.29 437.532,-1815.95 442.515,-1820.87"/>
<text text-anchor="middle" x="437" y="-1832.8" font-family="Times,serif" font-size="14.00">non</text>
</g>
<!-- are_you_working_on_production_app_without_bundler&#45;&gt;do_you_know_es2015 -->
<g id="edge19" class="edge"><title>are_you_working_on_production_app_without_bundler&#45;&gt;do_you_know_es2015</title>
<path fill="none" stroke="black" d="M720.584,-1865.39C712.472,-1849.25 703.219,-1829.45 696.5,-1811 685.892,-1781.87 667.297,-1708.01 653.612,-1651.39"/>
<polygon fill="black" stroke="black" points="656.948,-1650.29 651.203,-1641.39 650.142,-1651.93 656.948,-1650.29"/>
<text text-anchor="middle" x="707" y="-1743.3" font-family="Times,serif" font-size="14.00">non</text>
</g>
<!-- add_bundler -->
<g id="node15" class="node"><title>add_bundler</title>
<polygon fill="none" stroke="black" points="976.5,-1811 726.5,-1811 726.5,-1683 976.5,-1683 976.5,-1811"/>
<text text-anchor="middle" x="851.5" y="-1795.8" font-family="Times,serif" font-size="14.00">Ajoutez un paqueteur comme une</text>
<text text-anchor="middle" x="851.5" y="-1780.8" font-family="Times,serif" font-size="14.00"> &#160;&#160;&#160;étape de votre build pour mieux gérer</text>
<text text-anchor="middle" x="851.5" y="-1765.8" font-family="Times,serif" font-size="14.00"> &#160;&#160;&#160;vos dépendances et distribuer le code</text>
<text text-anchor="middle" x="851.5" y="-1750.8" font-family="Times,serif" font-size="14.00"> &#160;&#160;&#160;JavaScript efficacement. Utilisez l&#39;outil</text>
<text text-anchor="middle" x="851.5" y="-1735.8" font-family="Times,serif" font-size="14.00"> &#160;&#160;&#160;Google Page Speed insights pour jauger</text>
<text text-anchor="middle" x="851.5" y="-1720.8" font-family="Times,serif" font-size="14.00"> &#160;&#160;&#160;votre efficacité. N&#39;oubliez pas de passer</text>
<text text-anchor="middle" x="851.5" y="-1705.8" font-family="Times,serif" font-size="14.00"> &#160;&#160;&#160;votre code à travers des outils</text>
<text text-anchor="middle" x="851.5" y="-1690.8" font-family="Times,serif" font-size="14.00"> &#160;&#160;&#160;minify et envify.</text>
</g>
<!-- are_you_working_on_production_app_without_bundler&#45;&gt;add_bundler -->
<g id="edge18" class="edge"><title>are_you_working_on_production_app_without_bundler&#45;&gt;add_bundler</title>
<path fill="none" stroke="black" d="M762.464,-1866.98C772.931,-1852.99 785.658,-1835.98 798.176,-1819.26"/>
<polygon fill="black" stroke="black" points="801.105,-1821.18 804.294,-1811.08 795.5,-1816.99 801.105,-1821.18"/>
<text text-anchor="middle" x="796.5" y="-1832.8" font-family="Times,serif" font-size="14.00">oui</text>
</g>
<!-- use_es5 -->
<g id="node16" class="node"><title>use_es5</title>
<polygon fill="none" stroke="black" points="764,-1275 465,-1275 465,-1087 764,-1087 764,-1275"/>
<text text-anchor="middle" x="614.5" y="-1259.8" font-family="Times,serif" font-size="14.00">N&#39;utilisez pas encore ES2015.</text>
<text text-anchor="middle" x="614.5" y="-1244.8" font-family="Times,serif" font-size="14.00"> &#160;&#160;&#160;Vous n&#39;en avez pas besoin pour apprendre React.</text>
<text text-anchor="middle" x="614.5" y="-1229.8" font-family="Times,serif" font-size="14.00"> &#160;&#160;&#160;Les librairies tierces utiliseront souvent la</text>
<text text-anchor="middle" x="614.5" y="-1214.8" font-family="Times,serif" font-size="14.00"> &#160;&#160;&#160;syntaxe ES2015 dans leur documentation mais</text>
<text text-anchor="middle" x="614.5" y="-1199.8" font-family="Times,serif" font-size="14.00"> &#160;&#160;&#160;vous n&#39;avez pas besoin de librairies tierces</text>
<text text-anchor="middle" x="614.5" y="-1184.8" font-family="Times,serif" font-size="14.00"> &#160;&#160;&#160;lorsque vous apprenez uniquement React.</text>
<text text-anchor="middle" x="614.5" y="-1169.8" font-family="Times,serif" font-size="14.00"> &#160;&#160;&#160;Lorsque vous voudrez rafraîchir</text>
<text text-anchor="middle" x="614.5" y="-1154.8" font-family="Times,serif" font-size="14.00"> &#160;&#160;&#160;vos connaissances sur JavaScript,</text>
<text text-anchor="middle" x="614.5" y="-1139.8" font-family="Times,serif" font-size="14.00"> &#160;&#160;&#160;https://leanpub.com/understandinges6/read</text>
<text text-anchor="middle" x="614.5" y="-1124.8" font-family="Times,serif" font-size="14.00"> &#160;&#160;&#160;est un guide fabuleux. Servez&#45;vous de</text>
<text text-anchor="middle" x="614.5" y="-1109.8" font-family="Times,serif" font-size="14.00"> &#160;&#160;&#160;http://babeljs.io/repl pour tester vos</text>
<text text-anchor="middle" x="614.5" y="-1094.8" font-family="Times,serif" font-size="14.00"> &#160;&#160;&#160;suppositions.</text>
</g>
<!-- do_you_know_es2015&#45;&gt;use_es5 -->
<g id="edge22" class="edge"><title>do_you_know_es2015&#45;&gt;use_es5</title>
<path fill="none" stroke="black" d="M632.818,-1510.89C629.396,-1449.45 624.245,-1356.97 620.276,-1285.7"/>
<polygon fill="black" stroke="black" points="623.75,-1285.14 619.699,-1275.35 616.761,-1285.53 623.75,-1285.14"/>
<text text-anchor="middle" x="642" y="-1480.8" font-family="Times,serif" font-size="14.00">non</text>
</g>
<!-- are_you_using_dangerous_features -->
<g id="node17" class="node"><title>are_you_using_dangerous_features</title>
<polygon fill="none" stroke="black" points="845.5,-1459 642.5,-1376 845.5,-1293 1048.5,-1376 845.5,-1459"/>
<text text-anchor="middle" x="845.5" y="-1402.3" font-family="Times,serif" font-size="14.00">Utilisez&#45;vous des</text>
<text text-anchor="middle" x="845.5" y="-1387.3" font-family="Times,serif" font-size="14.00"> &#160;&#160;&#160;fonctionnalités expérimentales</text>
<text text-anchor="middle" x="845.5" y="-1372.3" font-family="Times,serif" font-size="14.00"> &#160;&#160;&#160;du langage qui n&#39;ont pas été</text>
<text text-anchor="middle" x="845.5" y="-1357.3" font-family="Times,serif" font-size="14.00"> &#160;&#160;&#160;incluses dans ES2015</text>
<text text-anchor="middle" x="845.5" y="-1342.3" font-family="Times,serif" font-size="14.00"> &#160;&#160;&#160;(par exemple les décorateurs) ?</text>
</g>
<!-- do_you_know_es2015&#45;&gt;are_you_using_dangerous_features -->
<g id="edge23" class="edge"><title>do_you_know_es2015&#45;&gt;are_you_using_dangerous_features</title>
<path fill="none" stroke="black" d="M688.7,-1527.05C715.674,-1501.24 748.911,-1469.43 777.832,-1441.75"/>
<polygon fill="black" stroke="black" points="780.281,-1444.26 785.086,-1434.81 775.441,-1439.2 780.281,-1444.26"/>
<text text-anchor="middle" x="749.5" y="-1480.8" font-family="Times,serif" font-size="14.00">oui</text>
</g>
<!-- remove_bundler&#45;&gt;do_you_know_es2015 -->
<g id="edge21" class="edge"><title>remove_bundler&#45;&gt;do_you_know_es2015</title>
<path fill="none" stroke="black" d="M557.513,-1682.86C568.024,-1669.04 579.137,-1654.43 589.604,-1640.67"/>
<polygon fill="black" stroke="black" points="592.414,-1642.75 595.682,-1632.67 586.842,-1638.52 592.414,-1642.75"/>
</g>
<!-- add_bundler&#45;&gt;do_you_know_es2015 -->
<g id="edge20" class="edge"><title>add_bundler&#45;&gt;do_you_know_es2015</title>
<path fill="none" stroke="black" d="M770.218,-1682.86C748.802,-1666.23 725.908,-1648.45 705.225,-1632.38"/>
<polygon fill="black" stroke="black" points="707.158,-1629.45 697.114,-1626.08 702.864,-1634.98 707.158,-1629.45"/>
</g>
<!-- do_you_update_packages_asap -->
<g id="node18" class="node"><title>do_you_update_packages_asap</title>
<polygon fill="none" stroke="black" points="811.5,-777 581.5,-724 811.5,-671 1041.5,-724 811.5,-777"/>
<text text-anchor="middle" x="811.5" y="-735.3" font-family="Times,serif" font-size="14.00">Mettez&#45;vous à jour vos dépendances</text>
<text text-anchor="middle" x="811.5" y="-720.3" font-family="Times,serif" font-size="14.00"> &#160;&#160;&#160;vers les nouvelles versions majeures</text>
<text text-anchor="middle" x="811.5" y="-705.3" font-family="Times,serif" font-size="14.00"> &#160;&#160;&#160;dès qu&#39;elles sortent ?</text>
</g>
<!-- use_es5&#45;&gt;do_you_update_packages_asap -->
<g id="edge24" class="edge"><title>use_es5&#45;&gt;do_you_update_packages_asap</title>
<path fill="none" stroke="black" d="M644.993,-1086.63C672.377,-1007.16 715.835,-890.965 765.5,-795 768.24,-789.705 771.283,-784.31 774.46,-778.984"/>
<polygon fill="black" stroke="black" points="777.657,-780.468 779.906,-770.114 771.691,-776.805 777.657,-780.468"/>
</g>
<!-- are_you_using_dangerous_features&#45;&gt;do_you_update_packages_asap -->
<g id="edge26" class="edge"><title>are_you_using_dangerous_features&#45;&gt;do_you_update_packages_asap</title>
<path fill="none" stroke="black" d="M830.523,-1298.98C819.169,-1237.29 804.525,-1147.91 798.5,-1069 792.883,-995.436 795.811,-976.729 798.5,-903 799.917,-864.135 803.07,-820.591 805.915,-786.299"/>
<polygon fill="black" stroke="black" points="809.434,-786.228 806.786,-775.97 802.459,-785.64 809.434,-786.228"/>
<text text-anchor="middle" x="810" y="-873.8" font-family="Times,serif" font-size="14.00">non</text>
</g>
<!-- can_you_spend_days_on_your_tooling -->
<g id="node19" class="node"><title>can_you_spend_days_on_your_tooling</title>
<polygon fill="none" stroke="black" points="1046.5,-1069 807.5,-986 1046.5,-903 1285.5,-986 1046.5,-1069"/>
<text text-anchor="middle" x="1046.5" y="-1012.3" font-family="Times,serif" font-size="14.00">Pouvez&#45;vous vous permettre</text>
<text text-anchor="middle" x="1046.5" y="-997.3" font-family="Times,serif" font-size="14.00"> &#160;&#160;&#160;de passer des jours à corriger votre</text>
<text text-anchor="middle" x="1046.5" y="-982.3" font-family="Times,serif" font-size="14.00"> &#160;&#160;&#160;outillage toutes les quelques semaines</text>
<text text-anchor="middle" x="1046.5" y="-967.3" font-family="Times,serif" font-size="14.00"> &#160;&#160;&#160;à cause de bugs, d&#39;incompatibilités</text>
<text text-anchor="middle" x="1046.5" y="-952.3" font-family="Times,serif" font-size="14.00"> &#160;&#160;&#160;et de changements des standards ?</text>
</g>
<!-- are_you_using_dangerous_features&#45;&gt;can_you_spend_days_on_your_tooling -->
<g id="edge25" class="edge"><title>are_you_using_dangerous_features&#45;&gt;can_you_spend_days_on_your_tooling</title>
<path fill="none" stroke="black" d="M880.742,-1306.97C915.67,-1239.55 969.128,-1136.36 1005.84,-1065.5"/>
<polygon fill="black" stroke="black" points="1008.96,-1067.08 1010.45,-1056.59 1002.74,-1063.86 1008.96,-1067.08"/>
<text text-anchor="middle" x="1001.5" y="-1177.3" font-family="Times,serif" font-size="14.00">oui</text>
</g>
<!-- give_it_two_months -->
<g id="node21" class="node"><title>give_it_two_months</title>
<polygon fill="none" stroke="black" points="886,-620 563,-620 563,-402 886,-402 886,-620"/>
<text text-anchor="middle" x="724.5" y="-604.8" font-family="Times,serif" font-size="14.00">À moins que nous ne parlions de React</text>
<text text-anchor="middle" x="724.5" y="-589.8" font-family="Times,serif" font-size="14.00"> &#160;&#160;&#160;qui est testé lourdement avant chaque sortie,</text>
<text text-anchor="middle" x="724.5" y="-574.8" font-family="Times,serif" font-size="14.00"> &#160;&#160;&#160;réfléchissez à ralentir votre rythme de mise</text>
<text text-anchor="middle" x="724.5" y="-559.8" font-family="Times,serif" font-size="14.00"> &#160;&#160;&#160;à jour de paquets. Vous pouvez essayer les</text>
<text text-anchor="middle" x="724.5" y="-544.8" font-family="Times,serif" font-size="14.00"> &#160;&#160;&#160;nouvelles versions des dépendances mais c&#39;est</text>
<text text-anchor="middle" x="724.5" y="-529.8" font-family="Times,serif" font-size="14.00"> &#160;&#160;&#160;mieux de les garder dans une branche à part</text>
<text text-anchor="middle" x="724.5" y="-514.8" font-family="Times,serif" font-size="14.00"> &#160;&#160;&#160;pour quelques mois pendant que la communauté</text>
<text text-anchor="middle" x="724.5" y="-499.8" font-family="Times,serif" font-size="14.00"> &#160;&#160;&#160;cherche et corrige les problèmes les plus</text>
<text text-anchor="middle" x="724.5" y="-484.8" font-family="Times,serif" font-size="14.00"> &#160;&#160;&#160;courants. Ne prenez pas de décisions en ayant</text>
<text text-anchor="middle" x="724.5" y="-469.8" font-family="Times,serif" font-size="14.00"> &#160;&#160;&#160;peur de passer à côté de quelque&#45;chose ! Si</text>
<text text-anchor="middle" x="724.5" y="-454.8" font-family="Times,serif" font-size="14.00"> &#160;&#160;&#160;vous cherchez de la documentation plus vieille,</text>
<text text-anchor="middle" x="724.5" y="-439.8" font-family="Times,serif" font-size="14.00"> &#160;&#160;&#160;n&#39;oubliez pas de regarder les anciennes</text>
<text text-anchor="middle" x="724.5" y="-424.8" font-family="Times,serif" font-size="14.00"> &#160;&#160;&#160;sorties de versions sur GitHub, par exemple</text>
<text text-anchor="middle" x="724.5" y="-409.8" font-family="Times,serif" font-size="14.00"> &#160;&#160;&#160;https://github.com/reactjs/react&#45;router/tree/0.13.x/doc</text>
</g>
<!-- do_you_update_packages_asap&#45;&gt;give_it_two_months -->
<g id="edge30" class="edge"><title>do_you_update_packages_asap&#45;&gt;give_it_two_months</title>
<path fill="none" stroke="black" d="M791.867,-675.384C786.169,-661.566 779.681,-645.829 773.033,-629.706"/>
<polygon fill="black" stroke="black" points="776.153,-628.091 769.105,-620.18 769.681,-630.759 776.153,-628.091"/>
<text text-anchor="middle" x="789.5" y="-641.8" font-family="Times,serif" font-size="14.00">oui</text>
</g>
<!-- consider_updating_react -->
<g id="node22" class="node"><title>consider_updating_react</title>
<polygon fill="none" stroke="black" points="1163,-605 904,-605 904,-417 1163,-417 1163,-605"/>
<text text-anchor="middle" x="1033.5" y="-589.8" font-family="Times,serif" font-size="14.00">C&#39;est judicieux. Cependant,</text>
<text text-anchor="middle" x="1033.5" y="-574.8" font-family="Times,serif" font-size="14.00"> &#160;&#160;&#160;nous vous encourageons à essayer</text>
<text text-anchor="middle" x="1033.5" y="-559.8" font-family="Times,serif" font-size="14.00"> &#160;&#160;&#160;(dans une branche à part !) les</text>
<text text-anchor="middle" x="1033.5" y="-544.8" font-family="Times,serif" font-size="14.00"> &#160;&#160;&#160;nouvelles versions de React dès lors</text>
<text text-anchor="middle" x="1033.5" y="-529.8" font-family="Times,serif" font-size="14.00"> &#160;&#160;&#160;qu&#39;elles sortent. À l&#39;inverse de</text>
<text text-anchor="middle" x="1033.5" y="-514.8" font-family="Times,serif" font-size="14.00"> &#160;&#160;&#160;beaucoup de paquets de la communauté,</text>
<text text-anchor="middle" x="1033.5" y="-499.8" font-family="Times,serif" font-size="14.00"> &#160;&#160;&#160;elles sont testées lourdement par</text>
<text text-anchor="middle" x="1033.5" y="-484.8" font-family="Times,serif" font-size="14.00"> &#160;&#160;&#160;Facebook. Gardez un œil sur les</text>
<text text-anchor="middle" x="1033.5" y="-469.8" font-family="Times,serif" font-size="14.00"> &#160;&#160;&#160;notes de version qui fournissent des</text>
<text text-anchor="middle" x="1033.5" y="-454.8" font-family="Times,serif" font-size="14.00"> &#160;&#160;&#160;liens vers des codemods qui automatisent</text>
<text text-anchor="middle" x="1033.5" y="-439.8" font-family="Times,serif" font-size="14.00"> &#160;&#160;&#160;des parties du processus de migration</text>
<text text-anchor="middle" x="1033.5" y="-424.8" font-family="Times,serif" font-size="14.00"> &#160;&#160;&#160;pour vous.</text>
</g>
<!-- do_you_update_packages_asap&#45;&gt;consider_updating_react -->
<g id="edge31" class="edge"><title>do_you_update_packages_asap&#45;&gt;consider_updating_react</title>
<path fill="none" stroke="black" d="M855.625,-681.061C876.456,-661.262 902.297,-636.702 927.767,-612.494"/>
<polygon fill="black" stroke="black" points="930.457,-614.766 935.294,-605.34 925.634,-609.692 930.457,-614.766"/>
<text text-anchor="middle" x="906" y="-641.8" font-family="Times,serif" font-size="14.00">non</text>
</g>
<!-- can_you_spend_days_on_your_tooling&#45;&gt;do_you_update_packages_asap -->
<g id="edge27" class="edge"><title>can_you_spend_days_on_your_tooling&#45;&gt;do_you_update_packages_asap</title>
<path fill="none" stroke="black" d="M955.009,-934.354C922.034,-912.505 886.764,-884.467 861.5,-852 845.966,-832.037 834.692,-806.639 826.828,-783.811"/>
<polygon fill="black" stroke="black" points="830.118,-782.611 823.664,-774.208 823.469,-784.801 830.118,-782.611"/>
<text text-anchor="middle" x="870.5" y="-829.3" font-family="Times,serif" font-size="14.00">oui</text>
</g>
<!-- stick_to_es2015 -->
<g id="node20" class="node"><title>stick_to_es2015</title>
<polygon fill="none" stroke="black" points="1110.5,-852 888.5,-852 888.5,-814 1110.5,-814 1110.5,-852"/>
<text text-anchor="middle" x="999.5" y="-836.8" font-family="Times,serif" font-size="14.00">Restez&#45;en à ES2015, JSX et</text>
<text text-anchor="middle" x="999.5" y="-821.8" font-family="Times,serif" font-size="14.00"> &#160;&#160;&#160;l&#39;opérateur de propagation d&#39;objets.</text>
</g>
<!-- can_you_spend_days_on_your_tooling&#45;&gt;stick_to_es2015 -->
<g id="edge28" class="edge"><title>can_you_spend_days_on_your_tooling&#45;&gt;stick_to_es2015</title>
<path fill="none" stroke="black" d="M1023.41,-910.827C1018.01,-893.472 1012.58,-876.024 1008.26,-862.152"/>
<polygon fill="black" stroke="black" points="1011.51,-860.809 1005.2,-852.301 1004.83,-862.889 1011.51,-860.809"/>
<text text-anchor="middle" x="1025" y="-873.8" font-family="Times,serif" font-size="14.00">non</text>
</g>
<!-- stick_to_es2015&#45;&gt;do_you_update_packages_asap -->
<g id="edge29" class="edge"><title>stick_to_es2015&#45;&gt;do_you_update_packages_asap</title>
<path fill="none" stroke="black" d="M967.608,-813.849C945.108,-801.043 914.014,-783.346 885.495,-767.114"/>
<polygon fill="black" stroke="black" points="887.162,-764.036 876.74,-762.131 883.7,-770.12 887.162,-764.036"/>
</g>
<!-- are_you_still_sad -->
<g id="node23" class="node"><title>are_you_still_sad</title>
<polygon fill="none" stroke="black" points="914.5,-365 769.046,-347 914.5,-329 1059.95,-347 914.5,-365"/>
<text text-anchor="middle" x="914.5" y="-343.3" font-family="Times,serif" font-size="14.00">Êtes&#45;vous toujours triste ?</text>
</g>
<!-- give_it_two_months&#45;&gt;are_you_still_sad -->
<g id="edge32" class="edge"><title>give_it_two_months&#45;&gt;are_you_still_sad</title>
<path fill="none" stroke="black" d="M851.233,-401.944C865.413,-389.853 878.527,-378.671 889.096,-369.66"/>
<polygon fill="black" stroke="black" points="891.659,-372.075 896.998,-362.923 887.117,-366.748 891.659,-372.075"/>
</g>
<!-- consider_updating_react&#45;&gt;are_you_still_sad -->
<g id="edge33" class="edge"><title>consider_updating_react&#45;&gt;are_you_still_sad</title>
<path fill="none" stroke="black" d="M964.967,-416.703C952.827,-400.176 941.201,-384.349 932.174,-372.06"/>
<polygon fill="black" stroke="black" points="934.83,-369.765 926.09,-363.777 929.189,-373.909 934.83,-369.765"/>
</g>
<!-- rant -->
<g id="node24" class="node"><title>rant</title>
<polygon fill="none" stroke="black" points="919,-278 666,-278 666,-165 919,-165 919,-278"/>
<text text-anchor="middle" x="792.5" y="-262.8" font-family="Times,serif" font-size="14.00">Écrivez un billet de blog</text>
<text text-anchor="middle" x="792.5" y="-247.8" font-family="Times,serif" font-size="14.00"> &#160;&#160;&#160;constructif sur les problèmes rencontrés.</text>
<text text-anchor="middle" x="792.5" y="-232.8" font-family="Times,serif" font-size="14.00"> &#160;&#160;&#160;Abstenez&#45;vous d&#39;attaques personnelles.</text>
<text text-anchor="middle" x="792.5" y="-217.8" font-family="Times,serif" font-size="14.00"> &#160;&#160;&#160;Soyez poli. Aidez la communauté à</text>
<text text-anchor="middle" x="792.5" y="-202.8" font-family="Times,serif" font-size="14.00"> &#160;&#160;&#160;trouver des solutions. Pensez à</text>
<text text-anchor="middle" x="792.5" y="-187.8" font-family="Times,serif" font-size="14.00"> &#160;&#160;&#160;d&#39;autres solutions qui remplissent</text>
<text text-anchor="middle" x="792.5" y="-172.8" font-family="Times,serif" font-size="14.00"> &#160;&#160;&#160;mieux vos besoins (comme Ember).</text>
</g>
<!-- are_you_still_sad&#45;&gt;rant -->
<g id="edge34" class="edge"><title>are_you_still_sad&#45;&gt;rant</title>
<path fill="none" stroke="black" d="M899.295,-330.608C887.838,-319.01 871.3,-302.269 854.649,-285.413"/>
<polygon fill="black" stroke="black" points="857.037,-282.851 847.52,-278.196 852.057,-287.77 857.037,-282.851"/>
<text text-anchor="middle" x="886.5" y="-299.8" font-family="Times,serif" font-size="14.00">oui</text>
</g>
<!-- happy -->
<g id="node25" class="node"><title>happy</title>
<polygon fill="none" stroke="black" points="1054.5,-128 762.5,-128 762.5,-90 1054.5,-90 1054.5,-128"/>
<text text-anchor="middle" x="908.5" y="-112.8" font-family="Times,serif" font-size="14.00">React vous rend heureux !</text>
<text text-anchor="middle" x="908.5" y="-97.8" font-family="Times,serif" font-size="14.00"> &#160;&#160;&#160;Tout du moins, il ne vous rend plus aussi triste.</text>
</g>
<!-- are_you_still_sad&#45;&gt;happy -->
<g id="edge35" class="edge"><title>are_you_still_sad&#45;&gt;happy</title>
<path fill="none" stroke="black" d="M918.907,-329.38C922.295,-315.701 926.692,-295.747 928.5,-278 933.59,-228.036 937.214,-214.461 928.5,-165 926.891,-155.866 923.886,-146.253 920.686,-137.664"/>
<polygon fill="black" stroke="black" points="923.85,-136.148 916.912,-128.142 917.343,-138.728 923.85,-136.148"/>
<text text-anchor="middle" x="944" y="-217.8" font-family="Times,serif" font-size="14.00">non</text>
</g>
<!-- rant&#45;&gt;happy -->
<g id="edge36" class="edge"><title>rant&#45;&gt;happy</title>
<path fill="none" stroke="black" d="M850.84,-164.926C861.771,-154.513 872.686,-144.116 882.032,-135.213"/>
<polygon fill="black" stroke="black" points="884.652,-137.551 889.479,-128.119 879.824,-132.482 884.652,-137.551"/>
</g>
<!-- share -->
<g id="node26" class="node"><title>share</title>
<path fill="none" stroke="black" d="M1108,-53C1108,-53 709,-53 709,-53 703,-53 697,-47 697,-41 697,-41 697,-12 697,-12 697,-6 703,-0 709,-0 709,-0 1108,-0 1108,-0 1114,-0 1120,-6 1120,-12 1120,-12 1120,-41 1120,-41 1120,-47 1114,-53 1108,-53"/>
<text text-anchor="middle" x="908.5" y="-37.8" font-family="Times,serif" font-size="14.00">Partagez ce diagramme : http://bit.ly/react&#45;vous&#45;rend&#45;triste.</text>
<text text-anchor="middle" x="908.5" y="-22.8" font-family="Times,serif" font-size="14.00"> &#160;&#160;&#160;Basé sur et inspiré par https://github.com/petehunt/react&#45;howto.</text>
<text text-anchor="middle" x="908.5" y="-7.8" font-family="Times,serif" font-size="14.00"> &#160;&#160;&#160;Traduit de l&#39;anglais de https://github.com/gaearon/react&#45;makes&#45;you&#45;sad.</text>
</g>
<!-- happy&#45;&gt;share -->
<g id="edge37" class="edge"><title>happy&#45;&gt;share</title>
<path fill="none" stroke="black" d="M908.5,-89.7333C908.5,-81.8465 908.5,-72.3354 908.5,-63.1483"/>
<polygon fill="black" stroke="black" points="912,-63.0173 908.5,-53.0174 905,-63.0174 912,-63.0173"/>
</g>
</g>
</svg>
